<svg id="svg" version="1.1" width="800" height="800" xmlns="http://www.w3.org/2000/svg"><path d="M185.500 194.508 C 180.000 195.201,173.250 196.340,170.500 197.040 C 158.004 200.221,137.099 207.101,129.349 210.584 C 127.616 211.363,125.816 212.015,125.349 212.034 C 124.882 212.053,122.700 212.937,120.500 214.000 C 118.300 215.063,116.128 215.947,115.673 215.966 C 114.729 216.005,100.426 221.944,91.500 226.004 C 88.200 227.504,84.425 229.068,83.111 229.478 C 81.084 230.110,63.498 238.952,53.500 244.366 C 50.987 245.727,48.517 245.886,38.288 245.345 C 28.031 244.803,25.349 244.977,21.536 246.433 C 14.331 249.185,14.249 254.992,21.367 258.370 C 25.552 260.356,28.083 260.407,34.532 258.635 C 57.113 252.432,56.001 252.627,61.396 253.929 C 66.184 255.085,70.963 256.467,85.500 260.899 C 88.800 261.905,93.975 263.438,97.000 264.305 C 100.025 265.172,105.875 266.869,110.000 268.075 C 114.125 269.281,119.525 270.824,122.000 271.504 C 124.475 272.185,130.100 273.754,134.500 274.991 C 143.986 277.658,147.430 278.565,177.000 286.186 C 188.744 289.212,200.767 292.775,215.000 297.447 C 243.269 306.725,279.245 322.982,292.060 332.268 C 293.402 333.241,297.425 336.130,301.000 338.689 C 304.575 341.248,309.941 345.139,312.925 347.336 C 315.909 349.532,322.659 354.270,327.925 357.863 C 333.191 361.457,337.950 364.779,338.500 365.246 C 339.050 365.713,346.250 370.513,354.500 375.912 C 362.750 381.312,372.513 388.515,376.197 391.921 C 383.105 398.308,390.748 408.880,394.264 416.912 C 397.637 424.615,399.544 426.671,403.974 427.380 C 409.362 428.241,409.157 429.960,403.750 429.259 C 398.290 428.551,397.063 427.653,391.717 420.455 C 389.285 417.180,383.828 410.812,379.591 406.306 C 367.135 393.058,361.900 391.249,326.587 387.980 C 312.787 386.703,307.565 387.048,296.500 389.966 C 284.226 393.202,265.943 401.989,242.253 416.037 C 239.154 417.874,235.366 422.699,236.293 423.626 C 237.085 424.419,243.720 423.049,258.500 419.042 C 272.296 415.301,283.781 415.033,298.765 418.101 C 309.322 420.263,312.378 420.148,311.411 417.628 C 311.062 416.719,308.715 415.931,305.112 415.513 C 296.374 414.499,295.697 413.299,303.400 412.474 C 310.738 411.688,317.290 412.371,317.825 413.976 C 318.026 414.578,322.050 415.000,327.583 415.000 C 333.194 415.000,337.000 415.404,337.000 416.000 C 337.000 416.550,335.820 417.000,334.378 417.000 C 332.226 417.000,331.967 417.255,332.933 418.419 C 333.863 419.540,333.732 420.059,332.305 420.889 C 331.312 421.467,330.725 421.972,331.000 422.013 C 331.275 422.053,337.350 422.466,344.500 422.930 C 359.721 423.918,368.935 426.580,379.000 432.898 C 382.575 435.143,387.272 437.936,389.437 439.105 C 391.603 440.275,393.997 441.855,394.759 442.616 C 396.146 444.003,398.000 444.481,398.000 443.450 C 398.000 442.276,394.560 436.332,391.951 433.000 C 389.401 429.743,387.450 423.000,389.058 423.000 C 389.450 423.000,390.439 424.012,391.256 425.250 C 393.905 429.260,399.608 435.000,400.943 435.000 C 401.996 435.000,402.003 434.709,400.980 433.476 C 400.284 432.638,399.903 431.764,400.133 431.534 C 400.900 430.767,409.474 430.744,411.301 431.504 C 412.805 432.130,413.015 431.862,412.574 429.876 C 411.464 424.883,410.086 415.225,409.523 408.500 C 408.890 400.949,407.941 395.020,405.359 382.500 C 404.451 378.100,403.148 371.350,402.462 367.500 C 401.395 361.508,400.372 360.720,400.964 366.346 C 401.376 370.264,397.887 383.000,396.400 383.000 C 393.978 383.000,393.852 380.744,395.935 374.690 C 397.023 371.527,397.710 368.390,397.460 367.719 C 396.755 365.821,399.378 353.150,400.500 353.038 C 401.050 352.983,401.636 354.189,401.802 355.719 C 401.968 357.249,402.701 359.850,403.432 361.500 C 404.163 363.150,405.325 367.650,406.015 371.500 C 407.248 378.380,409.168 383.489,410.772 384.160 C 411.219 384.347,412.579 386.128,413.793 388.118 C 415.669 391.193,416.000 393.192,416.000 401.434 C 416.000 406.768,415.628 411.889,415.173 412.816 C 414.718 413.742,414.541 418.208,414.779 422.740 L 415.211 430.980 419.105 432.028 C 423.931 433.328,424.420 435.758,419.750 435.234 C 415.399 434.746,412.061 437.170,413.614 439.691 C 414.588 441.272,415.909 441.456,424.114 441.151 C 429.276 440.959,433.928 440.397,434.450 439.901 C 436.187 438.253,438.645 438.969,440.011 441.520 C 441.851 444.959,440.239 446.392,434.461 446.453 C 431.555 446.483,429.593 447.038,428.994 448.000 C 428.225 449.237,427.707 449.280,426.044 448.250 C 423.370 446.592,421.657 446.664,422.326 448.406 C 422.984 450.122,420.859 452.104,415.253 455.003 C 410.881 457.263,410.413 459.615,414.541 458.579 C 415.818 458.259,419.599 456.366,422.943 454.374 C 426.429 452.298,431.687 450.223,435.262 449.514 C 438.693 448.833,442.175 448.001,443.000 447.665 C 444.042 447.241,445.027 448.179,446.227 450.738 C 447.846 454.191,447.849 454.580,446.277 456.961 C 442.868 462.120,440.275 468.000,441.408 468.000 C 442.033 468.000,444.218 466.621,446.263 464.935 C 448.308 463.249,450.443 462.155,451.007 462.504 C 451.571 462.853,451.827 463.470,451.576 463.876 C 451.325 464.282,451.477 467.243,451.913 470.455 C 452.593 475.468,452.443 476.557,450.853 478.147 C 449.834 479.166,448.575 480.000,448.055 480.000 C 447.535 480.000,446.517 481.237,445.793 482.750 C 444.724 484.983,443.762 485.528,440.676 485.651 C 437.459 485.779,436.727 485.413,435.910 483.265 C 435.120 481.184,435.311 480.470,436.973 479.307 C 438.088 478.526,439.000 477.300,439.000 476.583 C 439.000 475.857,437.465 476.651,435.533 478.376 L 432.066 481.473 435.033 484.534 C 436.665 486.218,438.000 488.088,438.000 488.689 C 438.000 489.670,433.470 491.522,431.857 491.200 C 431.504 491.129,430.983 491.955,430.701 493.036 C 430.065 495.468,431.554 495.620,432.875 493.258 C 433.411 492.300,434.148 491.815,434.513 492.180 C 435.495 493.161,431.161 498.606,428.395 499.866 C 427.078 500.466,426.000 501.642,426.000 502.479 C 426.000 505.290,421.510 504.160,418.308 500.543 C 412.864 494.394,412.538 495.169,425.848 482.591 C 429.286 479.341,432.555 475.832,433.111 474.793 C 433.974 473.180,433.785 472.935,431.811 473.108 C 427.850 473.456,425.857 473.040,426.500 472.000 C 426.840 471.450,427.936 471.000,428.937 471.000 C 431.375 471.000,433.537 468.450,431.937 467.461 C 431.299 467.066,430.489 467.184,430.138 467.722 C 429.787 468.260,428.488 469.234,427.250 469.885 C 424.695 471.231,424.248 474.497,426.500 475.362 C 428.185 476.008,428.513 478.565,427.029 479.482 C 426.496 479.812,424.718 479.388,423.079 478.541 C 419.708 476.798,410.456 476.496,406.500 478.000 C 404.736 478.671,403.244 478.666,401.972 477.985 C 399.736 476.789,400.349 474.341,403.103 473.467 C 404.159 473.132,405.650 471.653,406.417 470.179 C 407.184 468.706,408.979 466.150,410.405 464.500 C 412.968 461.534,414.120 458.480,411.800 460.800 C 411.140 461.460,409.523 462.000,408.206 462.000 C 406.654 462.000,405.629 462.703,405.290 464.000 C 405.002 465.100,404.144 466.000,403.383 466.000 C 401.423 466.000,401.666 467.651,403.750 468.493 C 405.297 469.118,405.234 469.303,403.206 470.084 C 400.693 471.052,398.000 476.449,398.000 480.516 C 398.000 482.589,407.096 502.560,410.973 509.000 C 411.469 509.825,417.790 521.075,425.018 534.000 C 438.348 557.836,447.024 572.601,450.314 577.048 C 455.470 584.018,461.273 594.528,467.819 608.750 C 468.666 610.590,470.066 612.000,471.047 612.000 C 473.797 612.000,484.789 603.384,493.500 594.400 C 502.086 585.547,510.673 571.958,513.952 562.037 C 516.620 553.967,520.000 538.782,519.999 534.876 C 519.998 533.019,520.647 526.325,521.442 520.000 C 526.507 479.666,526.996 469.440,524.423 457.697 C 521.765 445.568,516.546 436.144,506.728 425.750 L 501.296 420.000 494.668 420.000 C 490.883 420.000,486.299 420.697,483.979 421.625 C 479.375 423.467,477.640 422.899,481.163 420.703 C 483.757 419.087,496.294 411.164,502.500 407.220 C 504.700 405.821,508.312 403.444,510.526 401.937 C 512.741 400.430,517.241 397.787,520.526 396.065 C 523.812 394.342,527.175 392.536,528.000 392.051 C 535.386 387.711,547.173 385.006,558.799 384.983 C 570.733 384.960,594.844 387.872,598.500 389.778 C 601.826 391.512,616.308 402.889,616.833 404.181 C 617.390 405.549,621.000 405.095,621.000 403.657 C 621.000 402.309,612.632 389.887,608.480 385.071 C 607.261 383.657,603.817 379.582,600.828 376.016 C 597.838 372.450,592.941 367.564,589.946 365.159 C 586.951 362.754,583.462 359.915,582.192 358.850 C 580.923 357.784,576.849 355.020,573.138 352.707 C 569.428 350.393,565.516 347.951,564.446 347.281 C 551.572 339.214,533.666 336.387,523.670 340.844 C 519.146 342.861,518.881 343.183,519.487 345.939 C 520.041 348.462,519.732 349.090,517.316 350.358 C 513.788 352.209,507.758 358.544,505.759 362.500 C 500.366 373.175,497.917 382.521,501.763 377.750 C 502.692 376.597,504.990 371.268,508.010 363.265 C 509.570 359.129,520.378 348.000,522.834 348.000 C 524.612 348.000,524.245 349.550,521.514 353.574 C 519.027 357.239,516.642 363.976,517.521 364.854 C 518.583 365.916,521.767 361.665,523.953 356.268 C 526.611 349.708,530.163 344.518,533.055 342.971 C 535.791 341.506,542.292 342.796,541.576 344.662 C 540.876 346.487,543.060 350.000,544.896 350.000 C 545.983 350.000,545.891 349.538,544.500 348.000 C 543.505 346.900,543.172 346.000,543.762 346.000 C 544.351 346.000,545.003 346.510,545.211 347.133 C 545.443 347.828,546.460 347.989,547.847 347.549 C 549.660 346.973,549.873 346.552,548.930 345.416 C 547.147 343.268,549.818 343.592,553.774 346.004 C 555.575 347.102,557.663 348.000,558.413 348.000 C 559.164 348.000,560.813 348.838,562.077 349.861 L 564.376 351.723 558.438 352.443 C 545.711 353.987,530.275 360.799,515.500 371.390 C 505.438 378.603,498.645 385.059,488.500 397.047 C 484.100 402.246,473.300 413.645,464.500 422.377 L 448.500 438.255 453.000 437.569 C 455.475 437.192,462.144 437.449,467.820 438.139 C 475.848 439.115,478.565 439.128,480.056 438.197 C 481.110 437.539,483.037 437.000,484.337 437.000 C 488.320 437.000,499.500 441.144,500.170 442.868 C 500.351 443.336,502.663 444.668,505.308 445.829 C 510.017 447.896,510.103 447.898,509.490 445.969 C 508.472 442.762,509.859 443.727,511.332 447.250 C 512.079 449.038,514.785 452.655,517.345 455.288 C 521.596 459.662,522.014 460.529,522.157 465.288 C 522.465 475.540,522.137 482.719,520.678 497.581 C 519.406 510.530,518.759 513.599,516.099 519.289 C 514.394 522.934,513.000 526.584,513.000 527.399 C 513.000 528.215,512.550 529.160,512.000 529.500 C 511.447 529.842,511.000 529.117,511.000 527.880 C 511.000 525.746,510.008 522.085,507.644 515.500 C 505.666 509.988,491.851 498.000,487.478 498.000 C 486.730 498.000,485.799 497.484,485.410 496.854 C 484.911 496.048,485.486 495.905,487.351 496.373 C 490.621 497.194,490.938 495.333,487.750 494.034 C 486.512 493.529,484.485 492.012,483.244 490.661 C 481.078 488.303,463.257 480.410,462.288 481.379 C 461.494 482.173,463.089 486.063,463.982 485.511 C 465.240 484.733,473.829 488.678,477.379 491.665 C 479.096 493.109,481.030 495.548,481.677 497.086 C 482.325 498.624,484.687 501.040,486.927 502.454 C 489.197 503.887,491.000 505.811,491.000 506.801 C 491.000 507.777,492.970 510.224,495.379 512.237 C 497.787 514.250,500.041 517.029,500.389 518.413 C 500.736 519.797,502.028 522.019,503.260 523.350 C 504.492 524.682,507.862 528.275,510.750 531.334 C 515.431 536.294,515.997 537.364,515.968 541.199 C 515.951 543.564,515.276 546.374,514.468 547.441 C 513.070 549.290,512.999 549.243,512.985 546.441 C 512.963 542.097,511.341 539.907,502.500 532.283 C 490.514 521.948,484.515 518.000,480.799 518.000 C 479.714 518.000,476.953 516.690,474.663 515.089 C 467.975 510.413,463.744 509.849,467.638 514.153 C 468.882 515.527,469.004 516.290,468.147 517.323 C 466.740 519.018,467.644 520.000,470.608 520.000 C 473.753 520.000,474.488 521.668,471.942 523.031 C 470.780 523.653,470.081 524.415,470.390 524.724 C 470.699 525.032,471.526 524.808,472.228 524.225 C 473.910 522.830,481.989 524.332,487.716 527.105 C 492.009 529.183,507.175 544.622,509.782 549.568 C 510.487 550.906,511.500 552.000,512.032 552.000 C 512.564 552.000,513.000 552.891,513.000 553.979 C 513.000 557.421,508.819 568.853,506.938 570.556 C 505.264 572.071,504.912 572.061,502.143 570.425 C 500.499 569.454,498.782 567.892,498.327 566.955 C 496.887 563.986,483.617 552.967,480.729 552.341 C 479.205 552.012,477.716 551.350,477.420 550.871 C 476.763 549.807,472.987 549.703,473.033 550.750 C 473.095 552.151,476.810 555.994,478.831 556.749 C 482.005 557.934,502.000 575.996,502.000 577.678 C 502.000 578.510,501.149 580.386,500.110 581.846 C 499.070 583.306,498.191 584.853,498.155 585.285 C 498.119 585.717,496.908 587.517,495.464 589.285 C 494.019 591.053,493.300 591.563,493.864 590.418 C 494.429 589.273,495.578 587.765,496.418 587.068 C 497.746 585.966,497.757 585.615,496.505 584.362 C 495.610 583.467,495.274 581.879,495.617 580.166 C 496.080 577.852,495.455 576.753,491.730 573.319 C 489.289 571.068,485.445 568.165,483.189 566.866 C 479.826 564.931,479.188 564.099,479.651 562.253 C 480.351 559.467,477.388 559.087,475.466 561.716 C 473.119 564.925,474.878 580.988,478.758 591.784 C 480.466 596.536,482.005 596.812,483.140 592.569 C 483.696 590.490,483.375 589.073,481.892 587.068 C 480.512 585.201,479.867 582.688,479.805 578.933 C 479.717 573.599,478.655 570.123,476.728 568.866 C 476.194 568.517,475.925 567.725,476.131 567.106 C 476.365 566.406,477.884 566.916,480.148 568.455 C 483.597 570.799,483.827 571.303,484.500 577.998 C 485.159 584.558,486.732 588.000,489.071 588.000 C 490.928 588.000,489.924 591.276,486.476 596.470 C 484.538 599.390,482.175 602.041,481.226 602.361 C 480.277 602.680,477.772 604.112,475.660 605.543 C 472.333 607.795,471.900 607.892,472.416 606.265 C 472.744 605.232,472.591 602.163,472.077 599.444 C 471.502 596.401,471.500 594.135,472.071 593.550 C 472.650 592.958,473.000 593.307,473.000 594.479 C 473.000 597.433,475.287 603.000,476.501 603.000 C 477.105 603.000,478.134 602.466,478.786 601.814 C 479.701 600.899,479.651 600.270,478.565 599.064 C 475.081 595.193,473.067 586.913,471.456 569.838 C 470.557 560.313,469.588 552.142,469.302 551.679 C 468.127 549.779,466.069 539.186,466.036 534.872 C 466.016 532.327,465.325 528.629,464.500 526.654 C 463.675 524.680,463.012 521.362,463.027 519.282 C 463.052 515.721,459.898 492.869,458.020 483.000 C 457.549 480.525,456.618 475.575,455.952 472.000 C 455.285 468.425,454.193 464.600,453.525 463.500 C 452.857 462.400,452.072 459.688,451.780 457.472 C 451.194 453.019,441.535 436.000,439.594 436.000 C 438.937 436.000,437.970 436.430,437.444 436.956 C 435.937 438.463,420.417 439.484,419.582 438.132 C 419.166 437.459,419.616 436.948,420.691 436.871 C 421.686 436.800,423.693 436.667,425.151 436.576 C 426.608 436.485,428.408 435.907,429.151 435.293 C 429.893 434.679,431.850 434.025,433.500 433.838 C 436.325 433.520,436.518 433.217,436.810 428.631 C 436.980 425.953,436.659 420.803,436.096 417.186 C 435.284 411.974,434.442 409.981,432.036 407.574 C 429.241 404.780,429.000 404.706,429.000 406.647 C 429.000 407.806,429.705 409.340,430.566 410.055 C 433.090 412.150,434.939 416.518,434.313 418.911 C 433.783 420.939,433.527 420.782,431.310 417.064 C 429.977 414.829,428.462 413.000,427.943 413.000 C 426.397 413.000,426.821 414.170,430.568 420.241 C 432.598 423.530,433.999 426.987,433.818 428.261 C 433.367 431.438,431.772 431.034,430.812 427.500 C 430.364 425.850,429.108 423.375,428.021 422.000 C 426.079 419.544,426.044 419.538,426.022 421.691 C 426.010 422.896,426.415 424.139,426.923 424.453 C 428.291 425.298,427.713 433.896,426.250 434.458 C 425.353 434.802,425.000 433.533,425.000 429.969 C 425.000 424.774,423.818 423.604,422.000 427.000 C 421.411 428.100,420.430 429.000,419.820 429.000 C 419.025 429.000,418.914 424.821,419.427 414.262 C 419.821 406.155,420.292 399.374,420.474 399.192 C 420.656 399.010,421.729 399.438,422.857 400.143 C 426.660 402.518,426.334 400.063,422.032 393.930 L 417.756 387.835 418.452 379.856 C 418.835 375.468,419.727 370.500,420.435 368.817 L 421.721 365.758 424.318 369.129 C 432.603 379.883,433.836 381.911,433.312 383.915 C 433.012 385.062,432.531 386.000,432.244 386.000 C 431.408 386.000,429.173 382.914,425.740 377.019 L 422.549 371.539 421.747 376.019 C 421.306 378.484,421.224 382.075,421.564 384.000 C 422.193 387.555,428.622 399.995,429.836 400.006 C 430.201 400.010,431.267 401.360,432.203 403.006 C 434.817 407.599,435.835 406.565,434.077 401.102 C 433.209 398.408,432.177 396.401,431.782 396.641 C 430.530 397.403,423.744 382.856,424.840 381.760 C 425.791 380.809,429.712 385.967,431.292 390.250 C 432.209 392.737,434.000 392.419,434.000 389.770 C 434.000 386.929,439.939 377.108,445.957 370.000 C 454.546 359.853,456.396 356.071,450.610 360.484 C 448.745 361.906,445.942 364.967,444.381 367.285 L 441.542 371.500 440.816 366.000 C 440.417 362.975,439.958 359.600,439.795 358.500 C 439.479 356.361,440.672 356.128,445.000 357.483 C 447.424 358.242,447.447 358.206,445.750 356.304 C 443.333 353.595,443.482 353.316,447.750 352.543 C 449.813 352.169,452.625 351.595,454.000 351.266 C 456.211 350.737,456.346 350.855,455.167 352.286 C 454.435 353.176,454.012 354.713,454.229 355.702 C 454.522 357.040,455.375 356.268,457.561 352.689 C 459.607 349.340,461.336 347.706,463.250 347.314 C 465.276 346.898,466.000 346.153,466.000 344.482 C 466.000 343.235,466.610 341.980,467.357 341.693 C 468.792 341.143,470.784 335.713,473.483 325.000 C 474.384 321.425,475.563 316.807,476.103 314.737 C 477.727 308.507,488.546 298.000,493.336 298.000 C 494.455 298.000,497.425 296.282,499.936 294.182 C 504.880 290.047,509.305 287.723,507.041 290.451 C 505.970 291.741,506.467 291.726,510.650 290.341 C 513.317 289.457,515.950 288.278,516.500 287.720 C 517.173 287.037,516.898 286.919,515.657 287.357 C 514.644 287.715,512.619 288.254,511.157 288.554 C 508.777 289.043,508.865 288.882,512.000 287.015 C 514.771 285.365,514.979 285.061,513.000 285.555 C 510.864 286.087,511.010 285.822,514.000 283.736 C 517.588 281.234,534.227 275.000,537.319 275.000 C 538.267 275.000,540.758 273.865,542.853 272.478 C 549.055 268.374,563.725 265.159,568.153 266.933 C 570.496 267.872,570.496 267.873,567.812 267.937 C 564.534 268.014,552.347 270.681,549.250 271.999 C 545.539 273.579,546.705 274.732,551.250 273.976 C 563.919 271.870,569.000 270.702,569.000 269.897 C 569.000 269.404,571.277 269.000,574.059 269.000 C 577.177 269.000,578.881 268.616,578.500 268.000 C 577.705 266.713,579.652 266.739,589.750 268.150 C 595.435 268.945,598.000 269.722,598.000 270.652 C 598.000 271.430,599.077 272.000,600.550 272.000 C 601.952 272.000,604.539 272.697,606.300 273.548 C 609.154 274.929,609.292 274.931,607.573 273.559 C 606.513 272.713,605.883 271.784,606.173 271.494 C 606.798 270.869,616.892 273.100,626.000 275.876 L 632.500 277.858 625.000 278.116 C 613.661 278.508,610.924 278.708,605.764 279.521 C 602.463 280.042,600.569 279.887,599.514 279.012 C 598.356 278.051,597.670 278.029,596.596 278.921 C 595.823 279.562,594.095 279.811,592.756 279.475 C 591.417 279.139,582.382 279.357,572.679 279.961 L 555.037 281.058 543.653 286.407 C 537.391 289.349,531.952 292.268,531.565 292.894 C 530.614 294.434,528.952 293.289,529.618 291.553 C 529.910 290.792,528.203 291.979,525.824 294.189 C 523.446 296.400,517.942 300.500,513.592 303.302 C 509.243 306.103,506.228 308.576,506.892 308.797 C 507.773 309.091,507.659 309.872,506.470 311.687 C 503.863 315.665,505.821 315.789,509.310 311.867 C 512.914 307.816,526.000 297.415,526.000 298.602 C 526.000 299.027,521.950 303.506,517.000 308.553 C 512.050 313.601,508.000 318.373,508.000 319.159 C 508.000 319.944,505.768 323.226,503.040 326.453 C 500.312 329.680,498.291 332.662,498.550 333.080 C 498.808 333.499,496.653 336.997,493.760 340.854 C 488.631 347.692,474.152 372.330,472.846 376.441 C 471.807 379.712,467.053 389.000,466.418 389.000 C 466.101 389.000,466.116 387.538,466.451 385.750 L 467.061 382.500 465.081 386.000 C 463.992 387.925,461.849 392.875,460.319 397.000 C 456.802 406.484,456.090 404.027,459.473 394.081 C 460.860 390.001,461.774 386.441,461.504 386.171 C 460.695 385.362,457.000 389.188,457.000 390.834 C 457.000 393.597,454.608 399.036,453.544 398.692 C 452.970 398.507,451.725 396.735,450.778 394.754 C 448.856 390.735,447.514 389.564,445.940 390.537 C 445.265 390.954,445.501 391.646,446.589 392.441 C 447.529 393.128,448.425 394.888,448.581 396.352 C 448.737 397.815,449.743 400.130,450.817 401.495 C 454.415 406.068,454.352 411.430,450.573 422.459 C 448.349 428.947,446.548 432.633,445.403 433.034 C 443.786 433.601,443.779 433.701,445.323 434.294 C 446.245 434.648,447.690 434.672,448.534 434.349 C 450.141 433.732,457.452 419.091,461.680 408.021 C 464.638 400.277,480.588 368.166,482.591 365.921 C 483.366 365.053,484.008 363.928,484.017 363.421 C 484.026 362.915,486.614 358.576,489.767 353.780 C 492.920 348.985,497.273 342.235,499.441 338.780 C 507.273 326.300,521.152 306.976,521.937 307.461 C 522.378 307.734,522.418 309.713,522.026 311.860 C 521.633 314.007,521.518 317.167,521.769 318.882 C 522.241 322.098,520.683 323.222,519.614 320.437 C 519.284 319.577,518.554 319.158,517.991 319.506 C 517.428 319.854,517.302 320.670,517.710 321.319 C 519.028 323.415,518.625 329.447,517.040 331.342 C 515.038 333.736,511.033 340.668,506.351 349.843 C 502.063 358.245,491.410 369.000,487.374 369.000 C 485.633 369.000,484.890 369.700,484.458 371.750 C 484.139 373.262,483.230 375.978,482.439 377.784 C 481.648 379.590,481.000 381.787,481.000 382.666 C 481.000 385.096,477.192 390.917,471.825 396.690 C 468.735 400.014,467.000 402.777,467.000 404.375 C 467.000 405.747,466.547 408.062,465.993 409.519 C 464.505 413.432,465.722 414.370,469.336 412.100 C 471.366 410.824,473.048 408.568,474.028 405.806 C 475.126 402.713,476.182 401.410,477.778 401.180 C 479.502 400.932,480.000 400.197,480.000 397.897 C 480.000 396.267,481.141 392.682,482.536 389.929 C 483.931 387.177,484.786 384.464,484.438 383.899 C 484.089 383.335,484.463 382.115,485.268 381.187 C 486.073 380.259,487.037 378.217,487.410 376.650 C 488.443 372.310,491.972 368.164,495.673 366.943 C 497.503 366.339,499.000 365.506,499.000 365.093 C 499.000 364.679,501.475 361.606,504.500 358.263 C 509.652 352.570,511.317 350.068,509.000 351.500 C 507.240 352.588,507.931 350.373,509.910 348.581 C 510.961 347.631,512.094 345.761,512.429 344.426 C 512.764 343.092,513.761 342.000,514.644 342.000 C 515.909 342.000,516.117 342.663,515.626 345.122 C 515.084 347.829,515.202 348.077,516.514 346.989 C 517.346 346.298,517.947 345.231,517.851 344.617 C 517.754 344.002,518.697 341.250,519.946 338.500 C 523.084 331.590,525.000 321.903,525.000 312.953 C 525.000 305.526,525.060 305.350,528.750 301.875 C 532.559 298.288,542.512 291.000,543.601 291.000 C 543.929 291.000,545.616 290.368,547.349 289.597 C 549.082 288.825,554.273 287.211,558.885 286.011 C 566.499 284.030,569.166 283.865,587.885 284.220 C 608.590 284.613,610.089 284.815,628.500 289.696 C 647.488 294.729,673.860 305.115,694.500 315.688 C 702.185 319.625,712.277 324.970,714.500 326.281 C 715.600 326.930,718.750 328.782,721.500 330.398 C 726.837 333.534,733.481 337.673,741.372 342.781 C 744.052 344.516,751.824 348.696,758.643 352.071 C 767.997 356.700,771.666 358.050,773.587 357.568 C 776.708 356.784,776.493 354.054,773.180 352.403 C 769.242 350.439,766.171 347.257,763.908 342.794 C 759.476 334.056,747.667 323.614,728.000 311.045 C 725.702 309.577,705.523 299.622,698.500 296.493 C 692.339 293.747,681.961 289.946,672.382 286.928 C 666.947 285.214,659.125 282.550,655.000 281.006 C 633.743 273.050,616.164 268.419,592.000 264.407 C 572.372 261.148,552.192 262.564,538.500 268.162 C 535.750 269.286,532.150 270.761,530.500 271.438 C 525.773 273.380,508.866 281.895,504.942 284.310 C 502.985 285.515,499.160 287.828,496.442 289.452 C 493.724 291.076,491.275 292.680,491.000 293.018 C 490.725 293.356,488.298 295.131,485.606 296.963 C 482.915 298.795,479.026 302.031,476.965 304.155 C 473.208 308.027,472.884 308.898,469.037 325.487 C 467.891 330.431,465.639 334.000,463.665 334.000 C 461.418 334.000,449.804 342.478,448.441 345.114 C 447.414 347.101,445.746 348.257,442.744 349.062 C 433.185 351.627,432.556 352.610,435.352 360.624 C 437.651 367.213,438.261 374.789,436.676 377.052 C 435.314 378.997,435.210 378.962,432.817 375.775 C 428.590 370.144,428.481 369.409,432.300 372.301 L 436.000 375.102 436.000 372.640 C 436.000 370.142,432.681 366.697,427.095 363.397 C 424.350 361.776,424.238 361.393,423.782 352.109 C 423.178 339.818,420.351 333.293,411.700 324.222 C 405.429 317.645,398.737 313.728,391.130 312.180 C 388.085 311.561,387.079 310.641,384.888 306.471 C 375.917 289.394,373.594 285.539,364.068 271.914 C 354.947 258.866,335.426 241.068,320.866 232.525 C 315.107 229.145,309.498 225.720,299.533 219.500 C 281.243 208.082,274.907 204.765,264.000 200.900 C 244.158 193.868,211.625 191.219,185.500 194.508 M230.000 197.686 C 235.225 198.091,240.175 198.448,241.000 198.478 C 245.304 198.636,252.679 202.298,255.000 205.428 C 256.375 207.283,257.770 208.365,258.101 207.833 C 258.878 206.581,261.011 211.919,260.721 214.392 C 260.600 215.433,261.073 216.487,261.773 216.733 C 263.468 217.331,263.132 211.480,261.251 207.657 C 259.314 203.720,260.171 203.432,264.066 206.709 C 265.890 208.244,267.612 209.275,267.892 209.000 C 268.172 208.725,270.311 210.975,272.647 214.000 C 274.983 217.025,279.122 221.300,281.846 223.500 C 284.569 225.700,287.497 228.933,288.352 230.685 C 289.207 232.437,291.323 234.912,293.054 236.185 C 294.785 237.458,296.880 240.188,297.710 242.250 C 298.662 244.619,299.874 246.000,301.002 246.000 C 301.983 246.000,303.039 246.660,303.349 247.466 C 303.794 248.628,303.246 248.819,300.706 248.389 L 297.500 247.846 300.136 250.277 C 301.586 251.614,303.098 253.734,303.496 254.986 C 304.045 256.716,304.420 256.939,305.056 255.910 C 305.707 254.857,306.032 254.994,306.519 256.528 C 306.864 257.613,307.627 259.400,308.215 260.500 C 309.270 262.475,309.257 262.476,307.136 260.589 C 304.886 258.588,302.763 259.163,304.817 261.217 C 305.467 261.867,306.000 264.158,306.000 266.307 C 306.000 269.369,306.324 270.089,307.500 269.638 C 308.520 269.247,309.000 269.692,309.000 271.031 C 309.000 272.296,309.677 273.000,310.893 273.000 C 311.934 273.000,313.059 273.712,313.393 274.582 C 314.677 277.928,313.889 278.267,311.081 275.578 C 307.467 272.115,305.060 272.990,307.982 276.705 C 309.092 278.115,310.000 280.040,310.000 280.981 C 310.000 283.165,312.886 289.000,313.966 289.000 C 314.900 289.000,316.268 292.065,315.623 292.710 C 315.390 292.944,313.017 292.021,310.349 290.660 C 304.966 287.914,300.632 283.800,299.119 280.000 C 298.241 277.794,298.137 278.015,298.231 281.879 C 298.331 285.960,298.650 286.451,302.919 289.090 C 305.439 290.647,310.287 293.964,313.693 296.461 C 317.100 298.957,320.319 301.000,320.848 301.000 C 322.005 301.000,337.595 313.898,344.277 320.382 C 346.904 322.932,349.538 325.126,350.129 325.259 C 351.947 325.667,354.336 315.916,354.420 307.749 C 354.464 303.486,354.837 299.999,355.250 299.999 C 355.663 300.000,356.032 300.563,356.070 301.250 C 356.204 303.636,357.860 298.484,357.918 295.500 C 358.020 290.280,353.356 273.670,349.635 266.001 C 347.665 261.938,346.255 258.412,346.502 258.165 C 347.691 256.975,356.484 267.751,361.511 276.557 C 363.063 279.276,365.259 282.537,366.393 283.806 C 368.102 285.718,368.158 285.998,366.726 285.449 C 364.639 284.647,364.597 285.261,366.386 290.467 C 369.919 300.746,371.592 312.743,369.750 314.584 C 369.337 314.996,369.000 316.311,369.000 317.507 C 369.000 318.702,367.595 322.492,365.878 325.929 L 362.756 332.176 360.884 329.338 C 359.854 327.777,358.733 325.033,358.392 323.239 C 357.212 317.022,355.097 318.788,354.818 326.225 C 354.725 328.707,355.526 330.766,357.593 333.357 C 360.303 336.753,363.000 338.135,363.000 336.128 C 363.000 335.649,365.189 331.904,367.864 327.806 C 374.720 317.304,375.225 315.309,374.004 303.538 C 373.442 298.119,373.206 293.461,373.479 293.188 C 374.285 292.382,378.326 302.156,378.983 306.500 C 379.345 308.893,380.080 310.397,380.812 310.244 C 381.486 310.103,382.545 311.103,383.166 312.466 C 384.047 314.399,383.907 316.766,382.529 323.222 C 381.557 327.775,380.668 332.850,380.555 334.500 C 380.329 337.781,378.400 342.000,377.125 342.000 C 376.683 342.000,375.768 343.215,375.091 344.699 L 373.861 347.399 370.948 342.449 C 369.345 339.727,368.010 336.600,367.982 335.500 C 367.935 333.717,367.774 333.771,366.500 336.000 C 364.411 339.654,364.548 340.113,369.750 346.917 L 374.500 353.129 376.000 349.803 C 376.825 347.973,378.686 344.907,380.136 342.988 C 385.938 335.310,389.348 325.329,387.096 322.616 C 385.841 321.104,386.691 317.691,388.105 318.565 C 388.597 318.869,389.000 318.593,389.000 317.952 C 389.000 317.246,389.690 317.058,390.750 317.476 C 391.712 317.855,394.023 318.314,395.885 318.496 C 397.747 318.677,400.191 319.746,401.315 320.871 C 403.055 322.611,403.187 323.294,402.201 325.458 C 401.564 326.856,401.221 328.000,401.440 328.000 C 401.658 328.000,402.489 328.250,403.287 328.557 C 404.204 328.908,404.943 328.324,405.298 326.968 C 405.840 324.896,405.980 324.933,409.406 328.051 C 411.358 329.827,413.250 332.229,413.612 333.390 C 413.974 334.550,414.546 335.725,414.885 336.000 C 415.223 336.275,416.364 338.300,417.420 340.500 C 419.648 345.142,420.887 362.794,419.234 366.342 C 417.826 369.363,415.540 377.131,415.518 378.968 C 415.483 381.951,412.489 380.445,410.612 376.500 C 408.256 371.551,404.050 356.662,402.138 346.500 C 401.375 342.449,398.153 336.514,397.222 337.445 C 396.943 337.723,397.290 338.645,397.993 339.492 C 399.798 341.666,398.669 349.772,394.998 361.007 C 393.343 366.069,391.703 372.003,391.353 374.191 C 391.003 376.380,390.124 378.399,389.400 378.677 C 385.800 380.058,373.008 369.824,372.997 365.553 C 372.993 363.868,365.278 355.427,364.466 356.219 C 364.061 356.614,364.478 357.964,365.393 359.219 C 366.308 360.473,368.379 363.300,369.995 365.500 C 373.755 370.619,373.746 371.554,369.958 369.316 C 367.339 367.769,366.790 367.721,366.016 368.974 C 365.349 370.053,365.813 370.727,367.808 371.578 C 369.289 372.210,371.367 373.699,372.426 374.887 C 373.491 376.081,374.622 376.612,374.954 376.074 C 375.848 374.628,382.024 379.852,383.636 383.417 C 384.402 385.113,385.425 387.175,385.909 388.000 C 388.323 392.121,394.166 406.168,393.671 406.662 C 393.359 406.974,391.393 404.587,389.302 401.358 C 387.211 398.129,383.587 393.577,381.250 391.243 C 376.477 386.478,375.322 383.018,380.000 387.500 C 383.488 390.841,383.908 390.084,380.905 385.867 C 379.446 383.818,378.257 383.101,376.988 383.504 C 375.697 383.913,374.398 383.078,372.543 380.645 C 370.778 378.332,369.329 377.363,368.110 377.682 C 365.918 378.255,362.678 375.282,363.411 373.371 C 364.041 371.728,362.832 371.568,361.307 373.093 C 359.826 374.574,356.804 372.890,354.484 369.291 C 353.495 367.756,352.127 366.166,351.445 365.758 C 350.763 365.349,348.559 362.537,346.549 359.508 C 344.538 356.478,342.418 354.000,341.838 354.000 C 340.335 354.000,341.714 358.821,344.076 361.824 C 346.982 365.518,345.522 365.750,340.737 362.355 C 336.930 359.654,336.513 358.955,336.633 355.464 C 336.706 353.327,337.268 351.411,337.883 351.206 C 339.517 350.661,339.248 349.000,337.526 349.000 C 336.715 349.000,335.353 350.350,334.500 352.000 C 332.337 356.182,330.707 355.845,328.034 350.665 C 326.458 347.610,322.334 345.000,319.084 345.000 C 317.144 345.000,299.007 332.747,292.195 326.834 C 288.739 323.833,276.080 317.160,265.008 312.502 C 261.438 311.000,257.287 308.737,255.785 307.472 C 254.178 306.120,252.265 305.379,251.139 305.674 C 250.087 305.949,248.927 305.690,248.561 305.099 C 248.160 304.450,248.473 304.244,249.347 304.580 C 250.145 304.886,251.095 304.656,251.458 304.068 C 251.862 303.415,251.105 303.000,249.509 303.000 C 248.075 303.000,245.461 302.255,243.700 301.345 C 240.723 299.806,240.596 299.806,241.872 301.345 C 242.716 302.362,242.826 303.000,242.158 303.000 C 241.560 303.000,240.568 302.060,239.953 300.912 C 239.088 299.297,238.232 298.964,236.168 299.443 C 234.450 299.841,233.975 299.743,234.835 299.169 C 235.846 298.493,235.604 298.126,233.835 297.652 C 232.551 297.309,230.375 297.005,229.000 296.978 C 226.118 296.920,219.399 292.013,222.191 292.005 C 223.121 292.002,224.160 292.450,224.500 293.000 C 225.462 294.556,227.005 294.176,226.376 292.538 C 225.660 290.670,223.989 290.171,216.011 289.439 C 212.442 289.112,209.292 288.518,209.011 288.118 C 208.502 287.395,200.335 283.000,199.501 283.000 C 199.260 283.000,199.308 283.640,199.609 284.422 C 199.909 285.205,201.881 286.536,203.992 287.380 C 209.502 289.585,210.360 291.478,205.429 290.553 C 203.306 290.154,200.338 289.192,198.834 288.414 C 197.330 287.636,195.003 287.000,193.664 287.000 C 192.325 287.000,189.940 286.328,188.364 285.506 C 186.789 284.685,184.455 284.010,183.179 284.006 C 181.902 284.003,180.273 283.416,179.559 282.701 C 178.494 281.637,180.172 281.449,188.880 281.658 C 196.966 281.853,199.045 281.653,197.593 280.819 C 196.544 280.217,191.369 279.554,186.093 279.345 C 180.817 279.137,173.869 278.492,170.653 277.914 C 167.437 277.335,163.162 276.936,161.153 277.027 C 155.666 277.277,155.517 277.168,158.337 274.950 C 160.643 273.136,161.553 273.010,166.222 273.861 C 169.125 274.390,171.712 274.613,171.971 274.357 C 172.746 273.590,169.660 272.032,167.333 272.015 C 166.142 272.007,165.009 271.528,164.817 270.951 C 164.289 269.367,156.000 270.944,156.000 272.628 C 156.000 274.713,148.290 274.315,143.102 271.961 C 140.115 270.605,137.654 270.162,135.434 270.578 C 133.636 270.916,131.340 270.712,130.332 270.126 C 128.777 269.222,128.746 269.056,130.128 269.030 C 131.023 269.014,132.315 268.325,133.000 267.500 C 133.685 266.675,135.427 265.948,136.872 265.884 C 138.335 265.819,138.778 265.576,137.871 265.334 C 136.975 265.095,133.233 265.598,129.554 266.451 C 123.182 267.929,115.000 267.677,115.000 266.002 C 115.000 264.198,142.486 260.252,163.500 259.039 C 176.335 258.298,206.836 260.282,223.389 262.935 C 230.478 264.071,237.496 265.000,238.984 265.000 C 240.472 265.000,242.467 265.859,243.417 266.909 C 244.367 267.958,246.575 269.374,248.322 270.055 C 257.772 273.736,271.820 280.820,274.000 283.004 C 276.591 285.599,290.159 294.000,291.759 294.000 C 292.729 294.000,304.159 301.761,305.000 302.991 C 305.275 303.393,306.982 305.397,308.793 307.444 C 311.714 310.747,312.616 311.167,316.789 311.167 C 320.850 311.167,321.254 311.341,319.746 312.444 C 317.603 314.011,317.508 315.000,319.500 315.000 C 320.325 315.000,321.000 315.599,321.000 316.332 C 321.000 317.064,323.137 319.052,325.750 320.750 C 328.363 322.447,331.288 325.180,332.250 326.823 L 334.001 329.810 329.822 331.155 C 327.524 331.895,325.481 333.002,325.283 333.616 C 325.070 334.277,327.332 333.888,330.829 332.663 C 337.804 330.219,337.973 330.321,343.583 340.386 C 345.150 343.196,345.117 343.333,342.346 345.600 C 338.754 348.538,341.069 348.748,345.001 345.841 L 347.922 343.682 349.928 346.091 C 351.031 347.416,351.948 348.837,351.967 349.249 C 351.985 349.660,354.039 352.624,356.532 355.833 C 361.218 361.868,361.795 365.703,357.862 364.674 C 355.788 364.132,355.750 364.185,356.607 366.418 C 357.452 368.620,359.030 368.350,362.344 365.436 C 364.994 363.104,365.086 362.781,363.699 360.663 C 362.880 359.413,359.913 355.878,357.105 352.805 C 354.297 349.733,352.000 346.944,352.000 346.608 C 352.000 346.271,350.535 344.534,348.744 342.748 C 342.952 336.971,340.620 334.000,341.880 334.000 C 342.555 334.000,347.514 338.275,352.898 343.500 C 358.283 348.725,363.434 353.000,364.344 353.000 C 365.255 353.000,366.000 353.450,366.000 354.000 C 366.000 354.550,366.900 355.000,368.000 355.000 C 369.100 355.000,370.000 354.478,370.000 353.841 C 370.000 352.282,361.706 344.666,355.385 340.420 C 352.571 338.531,347.846 334.495,344.885 331.452 C 341.923 328.409,335.675 322.126,331.000 317.489 C 326.325 312.852,322.893 309.045,323.372 309.029 C 324.481 308.992,322.048 306.000,320.909 306.000 C 320.444 306.000,320.350 306.788,320.701 307.750 C 321.287 309.356,321.181 309.372,319.420 307.943 C 318.364 307.087,316.173 305.819,314.552 305.125 C 312.389 304.199,311.960 303.643,312.938 303.038 C 313.999 302.383,313.885 301.895,312.386 300.658 C 309.034 297.895,294.897 288.000,294.300 288.000 C 293.982 288.000,291.421 286.572,288.611 284.828 C 278.872 278.783,269.176 273.972,268.829 275.012 C 268.441 276.178,251.043 267.760,246.587 264.250 C 245.016 263.012,243.003 261.998,242.115 261.996 C 241.227 261.994,236.900 260.604,232.500 258.906 C 228.100 257.208,222.925 255.451,221.000 255.002 C 219.075 254.553,215.928 253.694,214.007 253.093 C 212.085 252.492,208.923 252.000,206.979 252.000 C 205.035 252.000,202.483 251.326,201.308 250.503 C 198.990 248.880,188.986 247.457,174.000 246.621 C 168.775 246.329,160.225 245.689,155.000 245.198 C 137.653 243.570,77.428 245.580,71.500 247.986 C 70.400 248.432,86.150 248.627,106.500 248.418 C 128.392 248.194,142.152 248.393,140.199 248.904 C 135.623 250.102,135.156 250.903,139.147 250.708 C 140.991 250.618,145.425 250.849,149.000 251.221 C 153.964 251.738,154.732 251.667,152.250 250.921 C 146.637 249.232,148.664 248.737,158.750 249.332 C 164.113 249.649,175.685 250.226,184.467 250.615 C 193.249 251.004,199.549 251.652,198.467 252.056 C 196.595 252.754,196.613 252.834,198.824 253.694 C 200.102 254.192,201.002 255.027,200.824 255.550 C 200.646 256.072,203.650 256.853,207.500 257.284 C 217.320 258.384,225.963 260.131,226.588 261.143 C 227.287 262.273,222.512 262.195,217.500 260.993 C 215.300 260.466,205.625 259.083,196.000 257.921 C 176.796 255.602,157.492 255.789,141.649 258.449 C 137.167 259.202,130.438 260.122,126.696 260.494 C 122.953 260.866,118.453 261.584,116.696 262.089 C 112.771 263.217,89.552 259.597,83.500 256.914 L 79.500 255.141 83.500 255.086 C 86.593 255.043,87.160 255.272,86.000 256.096 C 84.894 256.881,85.683 256.991,89.000 256.511 C 91.475 256.153,96.193 255.651,99.484 255.396 C 102.775 255.141,105.857 254.543,106.333 254.067 C 107.752 252.648,102.415 252.135,85.789 252.090 C 71.128 252.051,61.792 250.903,59.550 248.864 C 58.999 248.363,60.161 248.000,62.314 248.000 C 64.356 248.000,66.809 247.550,67.764 247.000 C 68.719 246.451,70.737 245.562,72.250 245.025 C 73.763 244.489,75.000 243.573,75.000 242.990 C 75.000 242.256,74.367 242.268,72.945 243.030 C 69.536 244.854,68.316 243.491,71.520 241.437 C 73.159 240.387,74.952 238.948,75.504 238.240 C 76.056 237.533,78.956 235.819,81.949 234.432 C 86.933 232.123,87.235 232.083,85.535 233.962 C 81.795 238.094,85.043 237.087,90.245 232.501 C 93.190 229.904,97.377 227.123,99.550 226.320 C 109.574 222.614,109.875 222.570,113.443 224.271 C 116.782 225.864,116.870 225.847,118.526 223.320 C 119.855 221.292,119.941 220.582,118.934 219.959 C 117.506 219.077,121.607 217.088,131.456 213.887 C 134.732 212.823,137.691 211.500,138.032 210.948 C 138.373 210.396,141.916 209.021,145.905 207.892 C 149.894 206.763,154.724 204.915,156.638 203.786 C 159.434 202.137,161.185 201.842,165.534 202.291 C 171.578 202.915,173.335 203.649,172.402 205.159 C 172.011 205.792,169.248 205.945,165.135 205.561 C 158.824 204.973,154.631 205.964,156.314 207.647 C 156.729 208.063,158.908 208.497,161.156 208.613 C 163.403 208.728,166.750 209.106,168.594 209.452 C 171.723 210.039,172.065 209.828,173.725 206.290 C 175.340 202.849,175.909 202.471,179.903 202.185 C 182.550 201.996,184.595 202.345,185.039 203.063 C 185.957 204.548,188.306 203.241,187.675 201.596 C 187.351 200.752,188.954 200.364,193.070 200.292 C 198.002 200.205,199.021 200.490,199.530 202.095 C 199.863 203.143,200.768 204.000,201.542 204.000 C 202.316 204.000,203.630 205.318,204.463 206.929 C 205.296 208.540,206.874 210.143,207.968 210.490 C 209.063 210.837,210.751 212.463,211.719 214.102 C 212.688 215.741,214.497 217.338,215.740 217.650 C 216.983 217.962,218.000 218.805,218.000 219.524 C 218.000 220.244,219.800 222.258,222.000 224.000 C 224.200 225.742,226.000 227.736,226.000 228.429 C 226.000 229.123,226.922 230.524,228.048 231.544 C 230.665 233.912,237.000 244.302,237.000 246.226 C 237.000 247.031,237.900 248.505,239.000 249.500 C 240.100 250.495,241.000 251.950,241.000 252.732 C 241.000 254.486,246.384 260.000,248.097 260.000 C 248.809 260.000,248.341 258.928,247.015 257.516 C 245.732 256.150,243.245 251.729,241.490 247.692 C 239.734 243.655,236.507 237.655,234.318 234.359 C 232.129 231.064,229.025 225.727,227.419 222.499 C 225.814 219.271,221.850 213.776,218.610 210.288 C 212.596 203.812,210.098 202.520,213.891 207.847 C 215.051 209.476,216.000 211.819,216.000 213.054 C 216.000 214.932,215.477 214.579,212.809 210.900 C 210.882 208.243,209.695 205.473,209.813 203.908 C 209.926 202.397,209.182 200.570,208.027 199.525 C 204.902 196.697,206.628 195.769,213.865 196.385 C 217.514 196.696,224.775 197.281,230.000 197.686 M220.250 198.662 C 218.241 199.473,218.803 200.975,221.500 202.000 C 222.875 202.523,224.000 203.412,224.000 203.975 C 224.000 204.539,224.563 205.015,225.250 205.033 C 227.870 205.103,233.940 212.394,232.541 213.792 C 232.213 214.120,234.994 216.305,238.722 218.648 C 242.450 220.990,246.400 223.631,247.500 224.516 C 249.474 226.104,249.471 226.118,247.250 225.563 C 246.012 225.253,243.988 224.715,242.750 224.368 C 241.013 223.879,241.583 224.856,245.250 228.652 C 247.961 231.458,250.000 234.505,250.000 235.749 C 250.000 237.002,250.957 238.420,252.250 239.082 C 255.499 240.746,257.949 244.119,258.000 247.000 C 258.024 248.375,258.924 250.625,260.000 252.000 C 261.076 253.375,261.966 255.144,261.978 255.932 C 262.022 258.797,269.498 269.737,273.259 272.441 C 275.382 273.966,277.332 275.002,277.592 274.741 C 277.852 274.481,276.419 272.297,274.407 269.889 C 272.395 267.481,269.652 263.033,268.311 260.005 C 266.971 256.977,265.239 253.150,264.462 251.500 C 263.686 249.850,261.844 245.350,260.369 241.500 C 258.894 237.650,256.182 232.256,254.343 229.513 C 252.504 226.771,251.000 224.174,251.000 223.742 C 251.000 221.886,240.264 209.521,235.116 205.448 C 232.027 203.004,228.787 200.328,227.916 199.502 C 226.374 198.039,222.772 197.645,220.250 198.662 M181.506 207.750 C 181.903 208.713,182.462 210.400,182.749 211.500 C 183.036 212.600,184.360 214.675,185.690 216.111 C 187.477 218.041,187.942 219.381,187.474 221.249 C 186.950 223.336,187.463 224.251,190.420 226.507 C 193.236 228.655,194.000 229.933,194.000 232.497 C 194.000 235.177,193.466 235.979,191.000 237.000 C 189.350 237.683,188.000 238.638,188.000 239.121 C 188.000 240.297,188.298 240.247,191.636 238.506 C 195.800 236.334,197.762 236.648,199.409 239.750 C 201.445 243.585,205.797 248.000,207.540 248.000 C 209.404 248.000,209.413 246.588,207.559 245.049 C 206.767 244.392,206.334 243.293,206.597 242.607 C 206.860 241.921,205.484 239.672,203.538 237.609 C 201.592 235.546,200.000 233.418,200.000 232.881 C 200.000 232.344,198.425 229.442,196.500 226.433 C 194.575 223.423,192.998 220.407,192.996 219.731 C 192.991 217.975,189.818 213.044,186.252 209.250 C 182.914 205.698,180.325 204.880,181.506 207.750 M145.192 209.713 C 143.324 210.070,143.109 210.426,144.064 211.577 C 145.024 212.734,144.837 213.000,143.063 213.000 C 141.864 213.000,141.160 212.550,141.500 212.000 C 142.374 210.586,140.826 210.816,138.721 212.414 C 137.122 213.626,137.105 213.826,138.552 214.382 C 141.104 215.361,144.860 215.104,146.932 213.810 C 148.427 212.877,149.179 212.903,150.419 213.933 C 151.288 214.654,152.000 215.840,152.000 216.568 C 152.000 217.296,153.238 218.493,154.750 219.230 C 156.571 220.116,157.473 221.314,157.421 222.776 C 157.368 224.279,158.246 225.384,160.171 226.236 C 161.727 226.925,163.000 227.818,163.000 228.221 C 163.000 228.624,165.475 231.509,168.500 234.633 C 174.387 240.711,175.002 241.937,172.250 242.110 C 171.287 242.170,172.497 242.611,174.937 243.089 C 177.377 243.568,179.575 243.758,179.822 243.512 C 180.068 243.266,179.646 241.587,178.885 239.782 C 178.123 237.977,177.495 235.941,177.489 235.259 C 177.484 234.576,177.104 234.057,176.646 234.106 C 174.795 234.304,169.616 228.121,166.506 222.000 C 164.690 218.425,162.114 214.561,160.783 213.414 C 158.643 211.570,150.478 208.770,148.307 209.136 C 147.863 209.211,146.461 209.471,145.192 209.713 M288.919 217.130 C 301.160 223.994,314.180 234.154,312.670 235.663 C 312.313 236.021,314.040 238.474,316.510 241.114 C 318.979 243.754,321.069 246.721,321.152 247.707 C 321.236 248.693,321.357 249.958,321.421 250.517 C 321.485 251.077,322.702 253.552,324.127 256.017 C 326.467 260.067,328.668 266.354,327.832 266.596 C 327.649 266.649,328.039 267.342,328.698 268.136 C 330.114 269.842,332.095 278.037,331.374 279.204 C 331.098 279.650,330.165 279.308,329.301 278.443 C 328.287 277.430,327.385 277.215,326.760 277.840 C 325.496 279.104,326.775 286.632,328.556 288.413 C 330.108 289.966,331.229 304.000,329.800 304.000 C 328.066 304.000,324.000 298.681,324.000 296.413 C 324.000 295.151,323.557 293.844,323.015 293.509 C 322.408 293.134,322.255 294.024,322.616 295.829 C 323.142 298.462,321.692 301.025,320.404 299.737 C 319.807 299.140,317.894 282.782,317.775 277.250 C 317.724 274.913,317.256 273.000,316.735 273.000 C 316.213 273.000,316.074 272.248,316.427 271.330 C 316.779 270.411,316.715 269.399,316.284 269.080 C 315.853 268.761,314.159 265.575,312.521 262.000 C 310.882 258.425,308.491 253.777,307.208 251.671 C 305.590 249.015,305.059 247.010,305.473 245.121 C 306.182 241.896,303.505 237.859,294.151 228.046 C 290.768 224.497,288.000 221.190,288.000 220.698 C 288.000 220.205,286.602 218.497,284.894 216.901 C 280.904 213.174,281.973 213.234,288.919 217.130 M267.597 218.250 C 267.990 218.938,268.778 220.100,269.347 220.833 C 270.478 222.288,270.560 222.682,271.581 231.500 C 272.251 237.288,273.225 239.226,278.645 245.559 C 279.824 246.937,281.098 249.738,281.476 251.783 C 281.853 253.827,283.104 256.512,284.255 257.750 C 286.804 260.489,289.557 260.815,288.478 258.250 C 286.228 252.896,287.503 249.333,289.999 253.999 C 291.025 255.916,290.367 266.000,289.216 266.000 C 288.926 266.000,287.154 264.830,285.279 263.399 C 283.403 261.968,281.612 261.054,281.299 261.368 C 280.576 262.090,283.571 266.698,286.569 269.477 C 289.513 272.205,290.866 277.000,288.692 277.000 C 287.853 277.000,286.244 275.762,285.115 274.250 L 283.063 271.500 283.052 274.500 C 283.043 277.073,283.879 278.034,288.924 281.250 C 295.006 285.126,298.242 286.202,296.116 283.639 C 294.192 281.322,292.257 267.263,293.114 261.839 C 294.052 255.908,293.245 253.305,289.959 251.667 C 288.608 250.993,286.522 248.377,285.324 245.854 C 284.126 243.330,281.602 239.968,279.716 238.383 C 277.319 236.368,276.112 234.372,275.707 231.753 C 275.122 227.975,269.192 217.081,267.691 217.028 C 267.246 217.013,267.204 217.563,267.597 218.250 M124.000 222.066 C 124.000 224.314,126.085 226.905,127.467 226.374 C 129.851 225.460,131.289 226.942,129.799 228.776 C 128.694 230.135,128.749 230.281,130.166 229.751 C 131.354 229.306,132.880 230.472,135.487 233.814 L 139.142 238.500 131.071 238.790 C 126.632 238.950,123.000 239.520,123.000 240.057 C 123.000 240.645,127.150 240.941,133.420 240.802 C 145.215 240.539,145.206 240.554,138.417 233.040 C 136.538 230.960,135.000 228.927,135.000 228.523 C 135.000 227.208,126.674 221.126,124.750 221.035 C 124.338 221.016,124.000 221.480,124.000 222.066 M329.608 243.086 C 335.617 247.868,337.593 251.302,334.859 252.214 C 334.184 252.439,334.796 253.756,336.359 255.443 C 337.812 257.010,339.000 258.656,339.000 259.102 C 339.000 259.547,340.125 261.569,341.500 263.595 C 342.875 265.621,344.000 268.141,344.000 269.194 C 344.000 270.248,344.975 273.223,346.166 275.805 C 348.719 281.339,350.383 289.096,350.070 294.000 C 349.947 295.925,349.768 299.188,349.673 301.250 C 349.578 303.313,349.207 305.000,348.848 305.000 C 348.489 305.000,347.729 306.340,347.158 307.978 C 345.987 311.334,346.915 312.479,350.009 311.497 C 351.644 310.978,352.000 311.324,352.000 313.433 C 352.000 316.565,351.676 316.587,347.132 313.750 C 345.150 312.512,342.622 311.039,341.514 310.475 C 340.406 309.911,339.351 308.412,339.170 307.144 C 338.857 304.962,338.767 304.936,337.502 306.667 C 335.282 309.702,334.540 307.291,335.806 301.162 C 337.390 293.490,337.264 278.951,335.548 271.500 C 333.815 263.975,326.600 246.298,324.143 243.558 C 321.799 240.943,320.738 238.000,322.140 238.000 C 322.732 238.000,326.093 240.289,329.608 243.086 M215.000 270.416 C 215.000 270.765,216.125 271.477,217.500 272.000 C 218.875 272.523,220.000 273.412,220.000 273.975 C 220.000 275.235,217.743 275.321,216.450 274.110 C 215.903 273.597,211.122 273.572,205.175 274.050 C 199.497 274.506,194.255 274.651,193.526 274.372 C 192.798 274.092,191.905 274.344,191.542 274.932 C 191.085 275.671,195.593 276.006,206.191 276.020 C 222.210 276.041,232.115 277.300,245.500 281.017 C 249.900 282.239,254.649 283.359,256.053 283.506 C 258.682 283.782,268.730 286.547,272.797 288.115 C 274.060 288.602,276.085 288.964,277.297 288.921 C 278.766 288.868,279.000 288.658,278.000 288.291 C 277.175 287.987,275.825 287.214,275.000 286.572 C 273.071 285.072,264.353 281.687,255.738 279.093 C 252.019 277.974,247.985 276.527,246.774 275.879 C 245.562 275.231,239.155 273.912,232.536 272.950 C 225.916 271.987,219.262 270.881,217.750 270.491 C 216.238 270.102,215.000 270.068,215.000 270.416 M643.500 281.486 C 645.150 282.216,647.850 283.094,649.500 283.439 C 652.509 284.068,672.135 290.931,672.917 291.628 C 675.020 293.504,665.685 291.507,661.247 289.132 C 660.224 288.585,652.928 287.857,645.034 287.515 C 637.000 287.167,629.312 286.322,627.574 285.595 C 625.865 284.881,622.224 283.980,619.483 283.592 C 610.685 282.346,610.065 281.532,617.500 280.987 C 631.326 279.975,640.479 280.151,643.500 281.486 M669.000 294.484 C 692.586 298.405,699.550 300.385,703.423 304.273 C 705.577 306.436,711.484 309.593,710.551 308.083 C 709.516 306.408,710.521 306.734,717.986 310.493 C 721.801 312.414,725.405 314.889,725.996 315.993 C 726.587 317.097,727.869 318.000,728.844 318.000 C 731.765 318.000,741.492 324.403,749.492 331.591 C 753.621 335.301,757.000 338.721,757.000 339.189 C 757.000 340.596,749.199 336.174,740.592 329.888 C 736.142 326.637,729.575 322.125,726.000 319.861 C 722.425 317.597,718.281 314.902,716.790 313.873 C 715.300 312.843,713.282 312.000,712.306 312.000 C 711.329 312.000,705.857 309.914,700.146 307.365 C 692.704 304.044,685.899 301.935,676.131 299.922 C 661.630 296.934,653.751 294.569,650.500 292.229 C 648.623 290.879,648.685 290.830,651.500 291.432 C 653.150 291.785,661.025 293.158,669.000 294.484 M271.282 298.570 C 275.469 302.462,275.332 304.452,270.943 303.487 C 269.366 303.141,267.323 303.280,266.402 303.795 C 265.111 304.518,265.846 304.892,269.614 305.431 C 274.516 306.131,281.492 307.875,290.134 310.560 C 295.544 312.241,299.000 312.412,299.000 311.000 C 299.000 310.450,298.420 310.000,297.711 310.000 C 297.003 310.000,294.714 309.129,292.626 308.064 C 290.538 307.000,288.191 306.373,287.412 306.672 C 284.608 307.748,281.261 305.956,275.935 300.525 C 272.954 297.486,269.837 295.012,269.008 295.027 C 268.080 295.044,268.954 296.406,271.282 298.570 M698.347 309.958 C 703.763 312.106,708.754 313.648,709.437 313.386 C 711.012 312.781,719.163 318.020,741.688 334.113 C 746.009 337.200,752.085 341.160,755.191 342.912 C 760.617 345.975,763.723 348.610,762.890 349.444 C 762.236 350.098,745.849 341.752,740.532 338.057 C 737.808 336.163,733.986 333.206,732.039 331.486 C 727.339 327.333,716.364 321.170,706.500 317.145 C 702.100 315.350,695.125 312.130,691.000 309.990 C 680.898 304.749,685.163 304.731,698.347 309.958 M498.750 320.578 C 496.137 323.071,494.000 325.457,494.000 325.881 C 494.000 326.305,492.828 327.742,491.396 329.076 C 489.963 330.409,487.803 333.525,486.596 336.000 C 483.551 342.241,479.221 349.589,475.104 355.500 C 473.188 358.250,471.679 361.301,471.751 362.279 C 471.822 363.257,471.007 364.603,469.940 365.270 C 468.873 365.936,468.000 366.886,468.000 367.381 C 468.000 368.989,463.641 377.440,461.620 379.750 C 460.537 380.988,458.492 382.052,457.076 382.115 C 455.257 382.196,455.670 382.455,458.481 382.995 C 460.670 383.416,462.920 383.564,463.481 383.324 C 464.041 383.084,465.850 380.153,467.500 376.810 C 471.841 368.017,482.458 349.264,484.244 347.235 C 485.085 346.281,487.009 343.025,488.521 340.000 C 491.739 333.561,498.486 323.867,500.557 322.708 C 502.219 321.778,505.440 315.988,504.276 316.023 C 503.849 316.036,501.363 318.086,498.750 320.578 M397.000 320.800 C 397.000 321.460,395.855 322.000,394.455 322.000 C 392.127 322.000,391.961 322.278,392.509 325.250 C 393.080 328.347,391.143 338.863,388.930 344.685 C 388.360 346.184,387.503 350.522,387.025 354.327 C 385.696 364.910,383.441 365.716,380.898 356.516 C 379.977 353.184,380.085 351.997,381.559 349.260 C 384.398 343.989,382.549 344.470,379.057 349.911 L 375.858 354.897 379.833 363.199 C 383.066 369.949,383.947 371.126,384.552 369.500 C 384.961 368.400,386.333 366.095,387.601 364.379 C 391.716 358.806,397.316 342.000,395.058 342.000 C 394.568 342.000,393.900 342.563,393.575 343.250 C 391.647 347.318,394.349 333.377,396.508 328.114 C 398.358 323.602,398.815 321.415,398.064 320.664 C 397.312 319.912,397.000 319.952,397.000 320.800 M575.231 358.427 C 578.129 360.384,583.599 364.914,587.386 368.493 L 594.271 375.000 590.734 375.000 C 587.758 375.000,587.041 374.555,586.220 372.200 C 585.413 369.885,584.342 369.192,580.045 368.200 C 577.187 367.540,573.982 367.000,572.924 367.000 C 571.866 367.000,571.000 366.422,571.000 365.716 C 571.000 364.027,548.280 364.108,542.366 365.819 C 538.469 366.946,535.144 369.477,536.189 370.522 C 536.449 370.783,539.776 369.947,543.581 368.665 C 549.829 366.560,551.401 366.415,559.786 367.168 C 566.610 367.782,570.456 368.699,574.286 370.625 C 580.053 373.526,596.000 383.774,596.000 384.580 C 596.000 385.930,587.822 383.368,582.198 380.257 C 578.732 378.339,575.700 376.967,575.459 377.207 C 575.219 377.448,576.817 378.653,579.011 379.886 C 581.205 381.119,583.000 382.549,583.000 383.064 C 583.000 384.247,582.744 384.237,579.315 382.913 C 567.349 378.295,564.000 377.188,564.000 377.852 C 564.000 378.271,565.237 379.103,566.750 379.701 L 569.500 380.787 566.000 380.858 C 564.075 380.897,561.375 380.286,560.000 379.500 C 558.592 378.695,554.771 378.055,551.250 378.035 C 547.774 378.016,545.000 377.556,545.000 377.000 C 545.000 376.450,545.112 375.999,545.250 375.999 C 545.388 375.998,549.239 375.339,553.808 374.535 C 558.377 373.731,563.440 373.338,565.058 373.662 C 566.745 373.999,568.000 373.823,568.000 373.250 C 568.000 370.601,549.644 370.898,545.285 373.618 C 544.067 374.378,541.817 375.003,540.285 375.006 C 536.539 375.013,530.000 376.886,530.000 377.952 C 530.000 378.852,521.142 384.204,514.750 387.165 C 512.688 388.120,511.000 389.344,511.000 389.884 C 511.000 390.424,510.070 391.160,508.934 391.521 C 507.798 391.881,505.436 393.418,503.684 394.936 C 501.933 396.454,498.025 399.412,495.000 401.510 C 491.975 403.608,488.038 406.429,486.250 407.781 C 480.362 412.232,482.861 408.104,490.750 400.348 C 495.012 396.157,502.144 390.331,506.597 387.401 C 511.051 384.471,515.268 381.382,515.970 380.537 C 516.671 379.691,518.236 379.000,519.448 379.000 C 520.660 379.000,522.655 377.932,523.881 376.627 C 525.107 375.322,527.885 373.454,530.055 372.475 C 532.225 371.497,534.000 370.090,534.000 369.348 C 534.000 368.607,533.702 368.000,533.338 368.000 C 532.176 368.000,523.583 373.195,521.254 375.306 C 520.019 376.425,518.726 377.059,518.380 376.714 C 517.219 375.553,518.928 372.978,521.512 371.995 C 522.922 371.459,525.738 369.891,527.770 368.510 C 529.802 367.130,532.118 366.000,532.918 366.000 C 533.717 366.000,535.403 365.031,536.664 363.846 C 538.787 361.852,555.414 355.747,556.303 356.636 C 556.520 356.853,558.228 356.345,560.099 355.507 C 564.771 353.414,569.024 354.234,575.231 358.427 M550.271 379.629 C 556.969 380.513,557.197 382.000,550.635 382.000 C 543.879 382.000,526.242 385.913,528.026 387.016 C 528.914 387.565,528.367 388.276,526.195 389.399 C 524.493 390.280,522.593 391.000,521.974 391.000 C 520.305 391.000,508.232 398.396,502.500 402.930 C 499.750 405.105,495.193 408.262,492.372 409.946 C 487.812 412.668,482.505 417.010,471.000 427.433 C 469.075 429.176,466.648 430.928,465.607 431.325 C 461.579 432.861,465.025 432.898,474.065 431.416 C 480.655 430.335,486.170 430.074,492.355 430.549 C 500.213 431.152,508.572 432.686,505.250 432.914 C 502.831 433.080,504.035 434.849,507.012 435.503 C 510.339 436.233,513.935 440.395,516.402 446.372 C 518.726 452.004,518.394 452.062,514.750 446.659 C 512.021 442.613,510.218 441.254,503.500 438.179 L 495.500 434.518 476.250 434.680 C 465.663 434.769,457.000 434.686,457.000 434.495 C 457.000 434.008,477.563 417.173,483.000 413.208 C 502.267 399.160,508.319 394.929,514.000 391.538 C 517.575 389.404,522.075 386.630,524.000 385.375 C 531.011 380.803,538.346 378.008,542.000 378.515 C 543.925 378.782,547.647 379.283,550.271 379.629 M390.282 384.334 C 391.053 385.525,392.053 387.850,392.504 389.500 L 393.324 392.500 393.920 389.512 C 394.271 387.750,395.246 386.384,396.297 386.181 C 397.789 385.894,397.966 386.299,397.385 388.669 C 397.003 390.226,396.310 391.650,395.845 391.833 C 394.650 392.305,394.820 394.896,396.330 399.231 C 398.796 406.311,399.908 404.621,398.051 396.616 C 397.556 394.480,397.523 392.005,397.978 391.116 C 398.433 390.227,399.371 387.587,400.063 385.250 C 400.754 382.913,401.586 381.000,401.910 381.001 C 402.235 381.001,402.625 386.945,402.777 394.209 C 402.937 401.849,403.486 407.683,404.080 408.049 C 404.644 408.398,405.537 411.792,406.064 415.592 C 406.592 419.391,407.223 423.048,407.468 423.718 C 408.221 425.779,406.318 426.084,404.179 424.245 C 403.064 423.285,400.728 418.225,398.990 413.000 C 395.325 401.986,390.374 390.538,387.796 387.115 C 385.600 384.199,385.381 380.825,387.440 381.615 C 388.232 381.919,389.511 383.143,390.282 384.334 M329.680 395.031 C 336.487 398.356,338.702 400.062,342.343 404.781 C 347.063 410.897,350.746 414.588,351.439 413.895 C 352.636 412.698,343.022 399.184,338.715 396.008 C 335.150 393.381,334.408 392.427,335.758 392.209 C 340.945 391.373,353.222 401.257,357.040 409.344 C 358.120 411.630,360.117 414.850,361.480 416.500 L 363.957 419.500 363.348 416.000 C 362.140 409.056,358.776 402.961,353.606 398.346 L 348.500 393.789 352.500 394.486 C 357.662 395.386,360.949 397.384,363.756 401.329 C 369.622 409.574,375.987 419.612,375.993 420.628 C 375.997 421.248,376.675 422.315,377.500 423.000 C 380.226 425.262,379.242 421.146,374.926 412.230 C 372.686 407.601,371.155 403.518,371.524 403.157 C 372.723 401.983,377.994 409.292,382.549 418.446 C 384.997 423.367,387.000 427.707,387.000 428.091 C 387.000 429.055,370.796 423.900,365.846 421.361 C 364.386 420.613,362.233 420.000,361.061 420.000 C 359.889 420.000,357.933 419.368,356.715 418.596 C 351.111 415.045,319.303 409.035,306.000 409.014 C 301.875 409.008,294.675 409.677,290.000 410.500 C 285.325 411.323,278.969 411.998,275.876 411.999 C 272.782 411.999,268.285 412.694,265.882 413.542 C 260.563 415.418,246.963 418.296,246.343 417.676 C 245.562 416.895,252.875 412.858,254.726 413.048 C 257.909 413.375,259.004 413.021,258.750 411.750 C 258.573 410.867,259.822 410.580,263.000 410.773 C 266.564 410.990,267.134 410.823,265.742 409.969 C 264.775 409.377,263.425 409.218,262.742 409.618 C 262.059 410.017,262.355 409.369,263.400 408.178 C 266.124 405.072,270.704 404.100,277.551 405.173 C 280.784 405.680,285.020 405.950,286.965 405.773 C 290.471 405.454,290.480 405.442,288.000 404.286 C 286.625 403.645,283.308 402.833,280.629 402.481 C 277.951 402.129,276.151 401.488,276.629 401.057 C 278.323 399.532,283.730 398.215,285.023 399.014 C 285.743 399.459,287.447 399.401,288.808 398.883 C 291.598 397.822,299.055 400.092,302.500 403.052 C 303.600 403.997,305.625 405.103,307.000 405.509 L 309.500 406.248 307.000 403.403 C 303.420 399.329,301.973 398.314,297.750 396.919 C 292.512 395.188,292.974 393.588,298.494 394.344 C 303.749 395.064,311.647 398.840,314.498 401.994 C 316.287 403.975,321.075 407.000,322.419 407.000 C 325.257 407.000,313.547 396.830,307.500 394.043 C 302.737 391.848,307.226 391.439,312.859 393.555 C 318.283 395.592,327.964 401.743,328.679 403.606 C 329.317 405.268,335.973 410.361,336.638 409.695 C 337.301 409.033,332.792 401.960,330.380 399.878 C 329.346 398.986,325.800 396.788,322.500 394.993 C 315.001 390.914,315.086 391.000,318.548 391.000 C 320.133 391.000,325.142 392.814,329.680 395.031 M312.000 421.000 C 311.175 421.533,308.970 421.976,307.100 421.985 C 301.952 422.008,293.187 426.811,287.020 432.989 C 277.830 442.196,262.413 463.752,257.685 474.004 C 253.975 482.050,249.341 494.768,248.030 500.500 C 247.401 503.250,246.482 507.300,245.987 509.500 C 245.492 511.700,245.068 521.160,245.044 530.522 L 245.000 547.544 248.073 551.272 C 250.909 554.713,251.550 555.000,256.398 555.000 C 261.095 555.000,267.110 553.341,279.000 548.766 C 283.340 547.096,288.793 544.070,296.188 539.226 C 301.520 535.734,316.704 525.918,326.265 519.782 C 328.594 518.288,332.750 515.866,335.500 514.401 C 338.250 512.936,340.725 511.397,341.000 510.981 C 341.275 510.565,343.075 509.475,345.000 508.559 C 348.559 506.865,350.971 505.541,359.000 500.877 C 361.475 499.440,367.753 496.592,372.950 494.550 C 394.443 486.104,397.131 482.819,394.841 467.790 C 393.587 459.560,394.096 460.188,386.500 457.496 C 385.239 457.049,385.701 457.777,387.750 459.466 C 390.852 462.023,392.083 465.000,390.039 465.000 C 389.510 465.000,388.273 464.165,387.289 463.144 C 384.177 459.915,380.274 457.882,376.325 457.432 L 372.500 456.996 375.000 458.976 C 376.375 460.065,378.261 460.966,379.191 460.978 C 380.121 460.990,381.160 461.450,381.500 462.000 C 381.840 462.550,381.390 463.000,380.500 463.000 C 379.610 463.000,379.161 463.452,379.502 464.004 C 379.843 464.556,381.148 464.750,382.402 464.435 C 384.107 464.007,385.098 464.501,386.340 466.397 C 387.253 467.790,388.000 469.813,388.000 470.893 C 388.000 471.973,388.675 473.532,389.500 474.357 C 391.777 476.634,391.338 478.345,387.452 482.347 C 381.698 488.272,380.720 487.517,379.618 476.304 C 378.999 470.009,376.951 465.723,372.187 460.750 C 368.597 457.003,365.826 456.173,363.000 458.000 C 361.767 458.797,361.871 458.972,363.580 458.985 C 366.189 459.004,374.523 466.345,373.611 467.820 C 373.240 468.421,373.714 470.619,374.663 472.706 C 375.613 474.793,376.436 478.464,376.492 480.865 C 376.561 483.814,377.173 485.653,378.380 486.536 C 380.090 487.786,380.088 487.881,378.333 488.787 C 377.325 489.308,374.025 490.533,371.000 491.511 C 367.975 492.488,364.612 493.898,363.527 494.644 C 361.222 496.229,356.392 496.443,355.500 495.000 C 355.160 494.450,353.816 494.000,352.512 494.000 C 351.209 494.000,349.436 493.293,348.571 492.429 C 347.143 491.000,347.000 491.040,347.000 492.863 C 347.000 495.813,348.785 500.000,350.043 500.000 C 350.657 500.000,350.873 499.177,350.538 498.118 C 349.694 495.462,352.424 494.706,354.515 497.016 C 356.138 498.810,356.061 498.992,352.859 500.945 C 349.212 503.168,348.661 503.317,345.172 503.029 C 343.616 502.900,341.626 504.116,339.172 506.695 C 335.261 510.806,328.671 515.988,327.317 516.018 C 326.868 516.028,324.520 517.378,322.100 519.018 C 315.700 523.355,314.732 522.631,320.352 517.713 C 323.491 514.967,325.128 512.767,324.987 511.484 C 324.609 508.033,324.953 507.721,326.750 509.884 C 327.998 511.386,329.161 511.811,330.804 511.364 L 333.108 510.738 330.804 509.577 C 328.234 508.282,328.134 504.680,330.593 501.921 C 332.703 499.554,332.301 498.935,329.376 500.047 C 327.288 500.841,326.503 500.703,325.529 499.370 C 324.474 497.928,324.208 498.301,323.607 502.055 C 322.258 510.491,317.910 517.333,310.502 522.675 C 308.853 523.864,307.829 525.163,308.228 525.561 C 308.626 525.959,309.638 525.716,310.476 525.020 C 311.314 524.324,312.000 523.998,312.000 524.294 C 312.000 525.430,296.324 535.744,292.871 536.881 C 290.875 537.538,288.443 538.958,287.466 540.038 C 286.489 541.117,285.055 542.000,284.278 542.000 C 283.502 542.000,281.384 543.130,279.573 544.512 C 275.019 547.986,263.021 552.000,257.193 552.000 C 253.422 552.000,251.867 551.487,250.174 549.686 C 247.475 546.813,247.387 544.329,249.954 543.514 C 251.614 542.988,251.745 542.535,250.823 540.511 C 249.656 537.949,250.392 534.506,251.908 535.443 C 252.414 535.756,253.057 535.447,253.336 534.756 C 253.614 534.065,253.893 534.850,253.954 536.500 L 254.067 539.500 256.005 537.174 C 257.072 535.894,258.369 535.110,258.887 535.430 C 260.168 536.222,265.736 531.411,267.510 527.981 C 269.172 524.768,268.596 523.983,262.803 521.562 C 259.506 520.184,258.954 520.235,254.879 522.291 C 251.016 524.240,250.463 524.942,250.190 528.250 C 249.979 530.791,249.392 532.000,248.369 532.000 C 247.098 532.000,246.938 530.610,247.360 523.250 C 248.077 510.742,248.708 506.396,250.186 503.791 L 251.486 501.500 251.819 504.348 C 252.139 507.085,252.313 507.172,256.326 506.588 C 266.314 505.134,272.802 504.906,276.981 505.864 C 280.751 506.728,281.760 506.623,283.334 505.198 C 286.526 502.309,287.958 498.518,287.327 494.630 L 286.738 491.000 280.958 491.000 C 277.779 491.000,272.326 491.894,268.839 492.987 C 265.353 494.080,261.825 494.983,261.000 494.993 C 260.175 495.004,258.375 495.596,257.000 496.310 C 250.029 499.928,248.912 498.447,254.130 492.505 C 259.101 486.843,266.908 483.871,283.500 481.323 C 286.993 480.787,294.166 482.948,294.744 484.711 C 295.036 485.603,293.808 485.765,290.088 485.324 C 286.758 484.930,284.532 485.143,283.559 485.951 C 282.724 486.644,280.868 486.927,279.291 486.603 C 275.825 485.890,262.798 489.053,262.246 490.741 C 261.782 492.157,265.919 491.587,272.376 489.345 C 274.507 488.605,278.377 488.000,280.975 488.000 C 283.573 488.000,289.170 487.707,293.413 487.348 C 300.926 486.713,301.258 486.571,306.064 481.938 C 308.779 479.322,311.000 476.954,311.000 476.676 C 311.000 475.438,276.270 477.002,271.500 478.455 C 264.515 480.583,262.641 480.479,263.290 478.000 C 263.999 475.286,262.711 475.461,261.487 478.244 C 260.944 479.478,259.662 480.646,258.637 480.839 C 256.827 481.180,256.826 481.103,258.603 478.095 C 259.608 476.393,260.672 474.942,260.966 474.871 C 261.815 474.666,265.718 474.230,277.500 473.022 C 285.725 472.179,288.826 471.466,289.793 470.197 C 290.785 468.896,292.663 468.500,297.852 468.500 C 303.773 468.500,305.025 468.843,307.885 471.250 C 309.683 472.762,311.706 474.000,312.382 474.000 C 313.595 474.000,318.160 470.918,321.269 468.000 C 322.148 467.175,324.699 465.175,326.938 463.555 C 329.177 461.935,330.670 460.306,330.255 459.936 C 325.491 455.687,290.971 450.119,287.460 453.034 C 286.667 453.691,282.990 454.472,279.287 454.769 L 272.555 455.310 278.778 448.098 C 282.200 444.131,285.000 440.468,285.000 439.957 C 285.000 439.446,286.716 437.893,288.813 436.505 C 292.689 433.940,299.022 432.940,302.191 434.393 C 303.593 435.036,303.829 434.685,303.571 432.334 C 303.325 430.083,302.823 429.564,301.131 429.813 C 297.256 430.382,298.917 428.284,304.250 425.873 C 308.358 424.016,311.023 423.537,316.500 423.668 C 323.376 423.833,326.000 424.519,337.000 429.026 C 340.025 430.266,345.875 432.636,350.000 434.294 C 354.125 435.952,359.525 438.224,362.000 439.343 C 364.475 440.463,367.767 441.261,369.315 441.117 C 370.863 440.973,373.281 441.609,374.688 442.531 C 376.095 443.453,376.939 443.711,376.564 443.104 C 375.310 441.075,378.276 441.969,383.127 445.081 C 385.767 446.776,388.363 447.894,388.895 447.565 C 389.427 447.236,390.187 447.494,390.585 448.138 C 391.037 448.869,390.876 449.041,390.155 448.595 C 389.520 448.203,389.000 448.359,389.000 448.941 C 389.000 450.668,386.472 450.154,383.385 447.800 L 380.500 445.600 382.411 447.806 C 386.904 452.995,380.964 451.149,372.856 444.837 C 367.433 440.615,366.825 441.412,372.000 445.960 C 377.486 450.781,375.421 451.295,368.446 446.845 C 359.740 441.290,353.848 437.946,354.431 438.888 C 354.742 439.391,357.394 441.395,360.324 443.340 C 365.284 446.632,368.999 450.000,367.669 450.000 C 365.932 450.000,360.371 446.818,351.264 440.613 C 345.634 436.777,340.755 433.912,340.421 434.246 C 340.087 434.579,341.233 435.586,342.967 436.483 C 344.701 437.380,347.780 439.598,349.810 441.413 C 353.304 444.537,358.500 448.186,365.406 452.367 C 367.797 453.814,369.744 454.120,374.068 453.728 C 377.135 453.449,380.443 453.669,381.419 454.215 C 382.569 454.858,383.535 454.865,384.166 454.234 C 384.701 453.699,387.124 453.485,389.552 453.759 C 394.297 454.294,394.688 453.938,395.215 448.609 C 395.475 445.970,394.935 445.427,389.015 442.381 C 385.448 440.546,380.048 438.554,377.015 437.954 C 371.213 436.808,365.084 434.859,353.500 430.478 C 340.957 425.735,320.267 420.049,315.500 420.036 C 314.400 420.033,312.825 420.467,312.000 421.000 M500.750 424.989 C 502.538 426.079,504.000 427.188,504.000 427.454 C 504.000 427.720,500.512 427.676,496.250 427.356 C 491.644 427.010,486.066 427.271,482.500 427.999 C 472.048 430.132,471.000 430.248,471.000 429.274 C 471.000 427.593,476.282 425.714,484.500 424.472 C 495.934 422.743,497.129 422.782,500.750 424.989 M305.750 426.689 C 304.788 426.941,304.000 427.594,304.000 428.141 C 304.000 428.687,304.858 428.862,305.907 428.530 C 308.681 427.649,316.739 429.841,322.500 433.042 C 325.250 434.570,329.312 436.301,331.526 436.889 C 333.765 437.482,337.316 439.641,339.526 441.751 C 341.712 443.838,345.041 446.634,346.924 447.965 C 350.926 450.792,349.570 451.863,344.989 449.494 L 341.842 447.867 344.161 451.004 C 346.422 454.062,346.625 454.124,352.240 453.472 C 356.163 453.017,358.000 453.154,358.000 453.902 C 358.000 454.506,359.385 455.000,361.077 455.000 L 364.153 455.000 361.327 452.728 C 359.772 451.478,356.925 449.671,355.000 448.713 C 353.075 447.754,349.250 445.177,346.500 442.986 C 341.203 438.765,337.047 436.531,322.408 430.035 C 313.973 426.291,310.185 425.530,305.750 426.689 M292.445 443.362 C 289.665 443.988,286.117 445.512,284.561 446.750 C 283.004 447.988,281.314 449.000,280.806 449.000 C 280.298 449.000,280.178 449.479,280.540 450.065 C 280.977 450.771,281.781 450.603,282.928 449.565 C 283.941 448.648,286.489 447.994,289.079 447.985 C 291.510 447.977,296.418 447.283,299.986 446.442 C 304.297 445.426,306.588 445.263,306.819 445.957 C 307.010 446.530,308.653 447.000,310.469 447.000 C 312.285 447.000,315.219 447.609,316.989 448.353 C 319.748 449.513,319.943 449.808,318.354 450.420 C 316.564 451.110,316.563 451.170,318.325 452.159 C 319.328 452.722,322.141 453.213,324.575 453.250 C 327.009 453.287,329.000 453.718,329.000 454.209 C 329.000 455.968,335.785 457.890,341.698 457.806 C 347.570 457.723,347.674 457.674,345.860 455.860 C 344.837 454.837,342.892 454.000,341.537 454.000 C 338.938 454.000,333.342 451.976,323.621 447.519 C 311.922 442.155,303.058 440.973,292.445 443.362 M452.036 445.683 C 452.056 446.132,453.232 447.850,454.650 449.500 C 456.069 451.152,456.966 451.713,456.645 450.750 C 455.864 448.403,458.030 448.489,462.470 450.983 C 464.411 452.074,466.000 452.716,466.000 452.410 C 466.000 452.105,467.130 452.744,468.512 453.831 C 469.893 454.917,471.846 455.591,472.851 455.329 C 475.321 454.683,485.305 457.668,488.179 459.913 C 489.456 460.909,491.471 462.029,492.658 462.401 C 493.844 462.772,495.068 463.734,495.376 464.538 C 496.235 466.777,498.311 466.298,497.710 464.000 C 496.947 461.082,498.879 461.550,500.023 464.560 C 500.558 465.968,501.416 466.861,501.929 466.544 C 502.442 466.227,503.144 466.425,503.490 466.984 C 503.835 467.543,503.416 468.000,502.559 468.000 C 501.702 468.000,501.000 468.675,501.000 469.500 C 501.000 470.534,502.038 471.000,504.345 471.000 C 506.420 471.000,508.377 471.759,509.500 473.000 C 510.495 474.100,512.108 475.000,513.083 475.000 C 514.057 475.000,516.008 476.462,517.416 478.250 L 519.978 481.500 519.989 478.702 C 519.996 476.894,519.027 475.048,517.250 473.484 C 515.328 471.792,514.966 471.054,516.050 471.032 C 516.903 471.014,518.133 471.533,518.783 472.183 C 519.434 472.834,520.229 473.104,520.549 472.784 C 521.521 471.813,516.803 467.992,511.500 465.455 C 508.750 464.140,504.249 461.586,501.499 459.782 C 493.217 454.348,479.472 449.842,462.500 446.998 C 458.650 446.353,454.712 445.610,453.750 445.345 C 452.788 445.081,452.016 445.233,452.036 445.683 M303.564 457.272 C 305.543 458.297,308.024 458.677,310.564 458.345 C 315.643 457.680,320.000 459.333,320.000 461.924 C 320.000 463.773,319.789 463.810,316.667 462.505 C 313.776 461.297,313.333 461.306,313.333 462.571 C 313.333 463.373,314.690 464.381,316.349 464.811 C 321.097 466.041,320.868 468.000,315.976 468.000 C 312.651 468.000,311.906 468.312,312.365 469.509 C 312.801 470.646,312.272 470.536,310.222 469.062 C 305.324 465.542,296.357 464.428,284.751 465.899 C 279.113 466.613,272.800 467.301,270.721 467.428 C 268.643 467.554,266.416 468.184,265.771 468.829 C 262.948 471.652,263.153 469.613,266.107 465.500 C 269.348 460.987,270.521 459.936,269.757 462.228 C 269.041 464.378,271.279 465.996,273.000 464.572 C 274.876 463.019,286.073 461.000,292.806 461.000 C 298.138 461.000,299.412 460.285,298.040 458.065 C 297.453 457.115,295.728 456.868,292.105 457.216 C 287.928 457.617,287.200 457.464,288.105 456.373 C 289.584 454.591,299.502 455.167,303.564 457.272 M346.250 460.973 C 343.913 462.034,342.000 463.348,342.000 463.892 C 342.000 466.143,344.233 465.982,347.158 463.520 C 351.412 459.941,353.855 460.573,356.752 466.000 C 359.125 470.444,360.376 475.507,361.635 485.750 C 362.151 489.951,361.992 491.000,360.840 491.000 C 360.048 491.000,358.860 490.460,358.200 489.800 C 357.267 488.867,357.000 488.933,357.000 490.100 C 357.000 493.573,361.302 495.286,362.399 492.250 C 362.747 491.288,363.713 489.375,364.546 488.000 C 367.182 483.647,364.646 473.473,358.500 463.750 C 355.060 458.308,353.100 457.864,346.250 460.973 M457.846 462.656 C 458.386 463.670,459.335 467.027,459.956 470.116 C 460.576 473.205,461.739 476.580,462.540 477.616 C 463.860 479.323,463.938 479.076,463.367 475.000 C 463.020 472.525,462.143 469.038,461.419 467.250 C 460.695 465.462,460.225 464.000,460.376 464.000 C 460.526 464.000,463.991 465.134,468.075 466.520 C 476.074 469.234,485.071 474.322,503.845 486.750 C 510.282 491.012,512.000 491.729,512.000 490.155 C 512.000 488.369,489.604 473.350,479.040 468.051 C 474.922 465.985,464.967 462.536,460.183 461.518 C 457.176 460.878,456.957 460.984,457.846 462.656 M332.500 466.150 C 326.273 469.400,324.886 470.918,326.089 473.166 C 326.709 474.326,326.843 477.823,326.427 482.040 C 326.050 485.868,326.007 489.000,326.332 489.000 C 327.217 489.000,328.887 482.150,329.345 476.636 C 329.752 471.746,331.013 470.044,334.250 470.015 C 335.212 470.007,336.000 469.288,336.000 468.417 C 336.000 467.546,336.563 467.023,337.250 467.255 C 338.165 467.563,338.433 470.465,338.249 478.088 C 337.966 489.823,340.295 502.000,342.822 502.000 C 344.013 502.000,344.120 500.763,343.445 494.750 C 342.998 490.762,342.719 485.025,342.825 482.000 C 343.051 475.552,340.033 464.605,337.941 464.284 C 337.149 464.162,334.700 465.002,332.500 466.150 M319.404 475.063 C 311.838 481.049,306.755 486.935,307.558 488.780 C 308.908 491.883,307.914 501.169,305.369 509.224 C 303.691 514.537,303.090 518.132,303.538 520.174 L 304.206 523.214 308.601 518.901 C 311.018 516.528,313.276 513.668,313.618 512.544 C 313.960 511.420,315.552 507.753,317.155 504.395 C 319.263 499.979,319.990 497.104,319.784 494.003 C 319.602 491.254,319.948 489.557,320.750 489.274 C 321.510 489.006,322.000 489.715,322.000 491.083 C 322.000 494.602,322.657 492.968,323.340 487.750 C 323.964 482.979,322.715 481.172,321.481 485.061 C 321.121 486.194,319.715 487.628,318.357 488.247 C 316.080 489.285,315.906 489.846,316.132 495.436 C 316.301 499.596,315.848 502.505,314.689 504.700 C 313.760 506.461,313.000 508.641,313.000 509.546 C 313.000 510.451,312.045 512.533,310.877 514.173 C 308.061 518.128,306.475 516.500,308.477 511.709 C 309.315 509.704,310.004 506.362,310.009 504.282 C 310.028 495.946,311.226 490.001,312.889 489.985 C 314.128 489.973,314.198 489.778,313.192 489.140 C 312.342 488.601,312.117 487.381,312.550 485.655 C 313.331 482.545,315.000 482.100,315.000 485.003 C 315.000 486.658,315.581 486.354,318.344 483.253 C 321.335 479.896,324.572 473.239,323.658 472.325 C 323.465 472.132,321.551 473.364,319.404 475.063 M423.347 480.867 C 425.067 481.544,425.078 481.690,423.516 482.987 C 422.189 484.088,421.438 484.130,419.932 483.190 C 417.247 481.513,416.688 481.698,417.306 484.062 C 417.776 485.860,417.500 486.049,415.153 485.534 C 413.559 485.183,411.692 485.504,410.576 486.321 C 408.853 487.581,408.962 487.659,411.846 487.236 C 415.542 486.693,415.697 487.212,412.982 491.026 L 410.963 493.860 413.383 499.180 C 414.713 502.106,417.883 506.975,420.427 510.000 C 422.971 513.025,424.991 516.400,424.916 517.500 C 424.600 522.102,425.069 524.000,426.519 524.000 C 427.626 524.000,427.874 523.344,427.432 521.586 C 427.099 520.258,427.610 515.947,428.567 512.007 C 429.869 506.653,431.418 503.411,434.700 499.172 C 438.843 493.820,452.625 481.013,454.250 481.004 C 457.180 480.988,452.661 493.301,445.078 506.000 C 442.286 510.675,439.933 515.400,439.848 516.500 C 439.764 517.600,439.648 519.096,439.590 519.825 C 439.532 520.553,438.701 521.588,437.742 522.124 C 436.712 522.701,436.000 524.282,436.000 525.991 C 436.000 527.581,435.550 529.160,435.000 529.500 C 434.450 529.840,434.000 532.090,434.000 534.500 C 434.000 539.293,432.219 541.553,431.278 537.954 C 430.955 536.719,429.175 532.961,427.323 529.604 C 425.472 526.247,423.237 521.925,422.357 520.000 C 420.369 515.650,420.167 515.299,416.563 509.900 C 414.947 507.480,412.141 502.463,410.327 498.752 C 408.512 495.041,405.897 490.212,404.514 488.022 C 401.487 483.227,401.217 480.501,404.115 484.000 C 405.455 485.618,405.989 485.886,405.628 484.760 C 405.214 483.467,405.768 482.877,407.785 482.460 C 409.278 482.152,411.850 481.518,413.500 481.052 C 417.250 479.992,420.947 479.923,423.347 480.867 M299.327 493.749 C 296.672 496.910,292.523 501.625,290.106 504.226 C 287.690 506.826,284.131 511.327,282.198 514.227 C 280.266 517.127,277.490 520.625,276.031 522.000 C 274.571 523.375,272.155 526.625,270.662 529.223 C 269.169 531.821,266.806 534.746,265.411 535.723 C 264.016 536.700,261.587 538.524,260.013 539.775 C 258.439 541.027,256.576 541.927,255.872 541.775 C 255.169 541.624,254.572 542.400,254.547 543.500 C 254.521 544.600,254.027 545.417,253.449 545.316 C 252.871 545.215,251.855 546.003,251.191 547.066 C 249.856 549.203,250.915 549.685,252.800 547.800 C 253.733 546.867,254.000 547.115,254.000 548.917 C 254.000 550.811,254.410 551.136,256.250 550.698 C 262.143 549.296,266.432 547.065,267.194 545.005 C 267.856 543.215,267.712 542.897,266.457 543.378 C 265.390 543.788,265.137 543.585,265.656 542.739 C 268.111 538.739,272.558 532.496,274.510 530.308 C 278.712 525.599,279.651 524.353,280.335 522.570 C 280.751 521.484,281.617 521.023,282.560 521.385 C 283.426 521.717,283.841 521.552,283.506 521.009 C 282.821 519.901,284.665 516.000,285.873 516.000 C 286.315 516.000,286.752 518.025,286.846 520.500 C 286.940 522.975,286.675 525.002,286.258 525.004 C 285.302 525.010,284.830 531.712,285.561 534.895 C 286.794 540.264,288.284 534.619,288.879 522.321 C 289.385 511.867,289.777 509.500,291.000 509.500 C 292.210 509.500,292.434 510.709,292.158 515.750 C 291.916 520.180,292.170 522.000,293.033 522.000 C 293.848 522.000,294.055 521.023,293.658 519.039 C 293.318 517.339,293.530 515.790,294.156 515.404 C 294.828 514.988,295.034 512.936,294.694 510.060 C 294.059 504.706,295.304 501.503,297.048 504.000 C 297.707 504.944,297.865 508.746,297.473 514.250 C 297.130 519.063,297.240 523.000,297.716 523.000 C 298.193 523.000,299.323 519.737,300.228 515.750 C 301.134 511.762,302.409 506.269,303.062 503.542 C 303.937 499.891,303.954 498.485,303.125 498.208 C 302.506 498.002,302.000 497.373,302.000 496.810 C 302.000 496.247,302.675 496.045,303.500 496.362 C 304.554 496.766,305.004 496.277,305.014 494.719 C 305.021 493.498,305.299 491.488,305.630 490.250 C 306.646 486.459,304.403 487.705,299.327 493.749 M283.820 496.250 C 283.549 498.155,282.887 498.500,279.500 498.500 C 277.300 498.500,274.976 498.840,274.336 499.256 C 273.696 499.672,270.096 500.644,266.336 501.417 C 262.576 502.191,258.427 503.156,257.116 503.563 C 255.306 504.125,254.845 503.966,255.199 502.902 C 256.045 500.361,273.423 494.737,282.320 494.125 C 283.661 494.033,284.055 494.591,283.820 496.250 M457.000 500.625 C 457.000 502.003,457.392 503.889,457.871 504.816 C 458.484 506.001,457.150 510.455,453.369 519.842 C 450.414 527.181,448.246 533.589,448.551 534.082 C 448.856 534.575,448.591 537.571,447.962 540.740 C 447.333 543.908,446.881 548.638,446.958 551.250 C 447.036 553.862,446.715 556.000,446.245 556.000 C 445.776 556.000,443.052 552.922,440.192 549.160 L 434.991 542.319 436.012 536.937 C 437.230 530.513,442.654 519.479,447.503 513.562 C 449.426 511.215,450.999 508.440,450.997 507.397 C 450.994 504.889,455.201 497.006,456.211 497.630 C 456.645 497.898,457.000 499.246,457.000 500.625 M257.500 508.738 C 253.570 509.313,252.000 510.707,252.000 513.622 C 252.000 514.930,251.539 516.000,250.975 516.000 C 249.612 516.000,247.773 520.966,248.467 522.774 C 248.896 523.893,249.400 523.728,250.788 522.013 C 253.372 518.822,260.555 517.726,267.191 519.509 L 272.500 520.936 275.323 517.718 C 276.875 515.948,278.796 513.268,279.592 511.763 C 281.021 509.058,281.010 509.038,278.609 510.132 C 276.680 511.011,275.703 510.905,273.867 509.620 C 271.612 508.040,264.789 507.673,257.500 508.738 M466.064 522.282 C 466.029 523.262,466.602 525.512,467.339 527.282 C 468.075 529.052,468.514 530.984,468.313 531.576 C 468.113 532.169,469.113 533.909,470.536 535.445 C 471.959 536.980,472.893 538.837,472.611 539.571 C 472.036 541.070,477.378 546.000,479.577 546.000 C 480.360 546.000,481.000 546.426,481.000 546.947 C 481.000 547.468,482.768 547.824,484.928 547.737 C 488.607 547.591,489.312 548.069,496.062 555.290 C 501.059 560.637,503.983 563.000,505.599 563.000 C 508.246 563.000,510.494 559.697,509.292 557.573 C 508.137 555.530,496.359 544.915,492.013 542.000 C 489.963 540.625,486.433 538.264,484.167 536.753 C 481.901 535.241,477.953 533.445,475.392 532.760 C 471.968 531.844,470.478 530.851,469.761 529.007 C 467.318 522.724,466.126 520.555,466.064 522.282 M462.000 534.994 C 462.000 539.876,461.541 545.077,460.980 546.551 C 460.420 548.026,459.513 553.552,458.966 558.831 C 458.418 564.110,457.577 568.823,457.097 569.303 C 456.214 570.186,458.936 577.971,460.135 577.990 C 460.484 577.995,461.057 575.413,461.409 572.250 C 462.207 565.085,465.146 553.000,466.091 553.000 C 466.479 553.000,466.628 559.413,466.422 567.250 C 466.217 575.087,466.033 583.525,466.014 586.000 C 465.960 592.998,465.146 594.066,462.963 590.000 C 461.929 588.075,461.065 585.897,461.042 585.159 C 461.019 584.421,459.498 582.064,457.663 579.920 C 455.828 577.776,453.478 574.329,452.440 572.261 C 451.403 570.192,448.629 565.951,446.277 562.834 C 440.901 555.713,440.694 553.298,445.959 559.121 L 449.918 563.500 450.162 559.000 C 450.296 556.525,450.478 553.150,450.567 551.500 C 450.965 544.090,452.489 538.089,455.265 533.000 C 461.022 522.446,462.000 522.735,462.000 534.994 " stroke="none" fill="#000000" fill-rule="evenodd"/></svg>